<?xml version="1.0" standalone="no"?>
<!DOCTYPE svg PUBLIC "-//W3C//DTD SVG 20010904//EN"
 "http://www.w3.org/TR/2001/REC-SVG-20010904/DTD/svg10.dtd">
<svg version="1.0" xmlns="http://www.w3.org/2000/svg"
 width="861.000000pt" height="861.000000pt" viewBox="0 0 861.000000 861.000000"
 preserveAspectRatio="xMidYMid meet">
<metadata>
Created by potrace 1.14, written by Peter Selinger 2001-2017
</metadata>
<g transform="translate(0.000000,861.000000) scale(0.100000,-0.100000)"
fill="#000000" stroke="none">
<path d="M4230 8237 l-1 -365 711 1 c391 0 713 -2 715 -5 3 -3 5 -641 6 -1418
l0 -1412 50 -52 c28 -28 65 -80 82 -116 30 -60 32 -72 32 -170 0 -95 -3 -111
-28 -162 -84 -171 -264 -263 -442 -226 -232 49 -366 276 -300 505 25 84 90
175 152 211 8 5 12 315 15 1210 l3 1202 -712 0 -713 0 0 268 c0 147 -3 400 -6
562 -5 284 -10 320 -36 304 -4 -3 -29 -8 -55 -11 -27 -3 -133 -23 -238 -45
-104 -22 -197 -41 -205 -42 -8 -2 -22 -6 -30 -9 -8 -3 -44 -13 -80 -22 -77
-19 -233 -69 -310 -98 -30 -12 -57 -22 -60 -23 -3 0 -14 -4 -25 -9 -11 -4 -58
-23 -105 -42 -74 -30 -418 -197 -460 -223 -8 -5 -55 -34 -105 -63 -128 -76
-249 -157 -253 -168 -2 -5 -8 -9 -13 -9 -13 0 -145 -100 -289 -219 -134 -111
-365 -335 -465 -452 -38 -46 -75 -87 -80 -93 -32 -33 -183 -237 -252 -341
-379 -566 -619 -1207 -702 -1875 -11 -91 -22 -194 -23 -229 l-3 -64 505 1
c278 0 508 1 513 1 4 1 7 373 7 827 0 821 0 825 20 819 12 -4 20 -2 20 5 0 6
5 8 11 4 17 -10 149 -11 149 -1 0 4 5 5 11 1 17 -10 149 -11 149 -1 0 4 5 5
11 1 17 -10 149 -11 149 -1 0 4 5 5 11 1 17 -10 149 -11 149 -1 0 4 5 5 11 1
17 -10 149 -11 149 -1 0 4 5 5 11 1 17 -10 149 -11 149 -1 0 4 5 5 11 1 17
-10 149 -11 149 -1 0 4 5 5 11 1 17 -10 149 -11 149 -1 0 4 5 5 11 1 17 -10
149 -11 149 -1 0 4 5 5 11 1 17 -10 109 -12 109 -2 0 5 5 6 11 2 17 -10 109
-12 109 -2 0 5 5 6 11 2 17 -10 109 -12 109 -2 0 5 5 6 11 2 16 -9 229 -11
229 -1 0 4 5 5 11 1 17 -10 109 -12 109 -2 0 5 5 6 11 2 17 -10 109 -12 109
-2 0 5 8 5 18 1 9 -5 26 -7 37 -7 11 1 28 2 38 3 9 1 27 13 40 28 71 87 153
141 245 162 64 14 169 6 233 -18 80 -30 170 -114 211 -199 31 -63 33 -72 32
-177 0 -121 -11 -155 -75 -239 -146 -189 -421 -206 -598 -36 l-52 50 -1010 0
-1009 0 0 -825 0 -825 -27 0 c-16 0 -344 0 -731 0 l-703 0 6 -72 c45 -542 139
-936 343 -1433 43 -104 217 -435 296 -561 188 -300 341 -495 578 -739 l118
-120 0 495 0 496 -51 53 c-28 30 -66 84 -83 120 -28 60 -31 75 -31 166 0 93 2
105 32 165 18 36 49 83 70 106 39 42 134 102 175 109 13 3 34 7 48 11 37 8
126 5 155 -6 14 -5 29 -9 33 -8 17 5 110 -51 152 -92 86 -84 121 -165 121
-280 0 -129 -40 -221 -137 -309 l-57 -52 6 -657 c3 -361 8 -665 12 -674 8 -19
176 -133 343 -231 123 -73 325 -177 442 -226 41 -18 84 -36 95 -41 143 -66
547 -193 714 -225 9 -2 61 -12 116 -24 55 -11 118 -23 140 -26 23 -3 50 -7 60
-9 18 -3 53 -8 180 -22 17 -2 136 -6 265 -10 l235 -7 -1 359 c-1 198 -2 362
-3 366 0 5 -322 9 -713 10 l-713 3 -1 1400 c-1 770 -2 1405 -3 1412 0 7 -21
34 -46 60 -106 114 -144 260 -104 406 44 163 198 279 369 279 100 -1 135 -8
194 -40 161 -86 250 -288 202 -457 -23 -80 -53 -128 -123 -200 l-59 -60 3
-985 c1 -542 2 -1076 3 -1186 l0 -202 593 -1 c691 -2 600 -2 663 0 28 1 56 -1
62 -5 6 -3 13 -2 17 4 4 6 12 7 18 3 6 -4 25 -7 41 -7 l30 -1 2 -455 c1 -250
2 -504 3 -564 l1 -109 58 7 c91 10 153 20 198 30 12 2 37 7 55 10 146 24 495
116 549 145 9 5 31 12 50 16 19 4 53 15 75 25 22 10 83 34 135 55 354 141 802
407 1090 649 181 153 419 386 565 556 455 528 774 1180 934 1910 21 99 46 240
56 325 3 28 7 61 10 75 2 14 7 69 10 123 5 77 4 97 -7 98 -7 1 -237 2 -510 3
l-498 2 0 -823 0 -823 -1215 0 -1215 0 -69 -70 c-91 -93 -154 -122 -273 -126
-100 -4 -169 15 -241 65 -250 172 -222 558 51 687 59 29 93 36 172 36 112 0
180 -25 270 -102 64 -54 100 -76 100 -60 0 7 6 8 18 1 11 -6 24 -6 35 0 9 6
17 6 17 2 0 -4 11 -8 25 -8 14 0 25 3 25 7 0 4 14 3 30 -2 19 -5 30 -5 30 1 0
7 6 7 17 0 11 -6 24 -6 35 0 12 6 18 6 18 0 0 -6 11 -6 30 -1 17 5 30 6 30 2
0 -4 38 -7 85 -7 47 0 85 2 85 5 0 7 69 4 76 -3 3 -3 17 -2 30 3 14 6 26 6 29
0 3 -5 16 -6 28 -1 12 4 36 5 52 1 17 -3 45 -3 63 1 17 4 32 3 32 -1 0 -5 14
-5 30 0 17 5 30 5 30 0 0 -5 13 -5 30 0 17 5 30 5 30 0 0 -5 13 -5 30 0 17 5
32 5 35 0 3 -5 15 -6 27 -1 12 4 37 5 55 1 17 -4 35 -5 38 -2 4 5 139 5 174 0
3 0 11 0 16 1 6 1 164 3 353 3 l342 0 1 657 c0 559 3 935 8 977 1 11 88 12
1045 14 l408 1 -6 107 c-6 95 -14 169 -32 307 -57 423 -208 904 -408 1304 -54
106 -146 272 -190 341 -122 189 -224 331 -330 460 -145 176 -356 399 -357 378
0 -7 0 -230 0 -496 l-1 -482 48 -53 c26 -28 61 -81 77 -116 27 -57 31 -76 31
-155 0 -81 -3 -98 -31 -158 -40 -85 -106 -156 -183 -197 -33 -18 -60 -30 -60
-26 0 3 -9 1 -20 -5 -29 -16 -166 -13 -221 4 -103 32 -196 115 -242 216 -76
167 -18 392 126 485 l27 17 0 678 0 678 -142 93 c-297 194 -594 346 -868 445
-116 42 -118 43 -128 45 -4 1 -32 10 -62 21 -56 20 -175 55 -220 64 -14 3 -56
14 -95 24 -87 23 -302 66 -374 75 -30 4 -62 8 -71 10 -9 2 -53 7 -96 11 -43 3
-92 8 -109 10 -16 2 -121 6 -232 10 l-201 7 -2 -366z"/>
<path d="M7038 6295 c-2 -2 -19 -5 -37 -7 -18 -1 -37 -8 -43 -15 -6 -7 -16
-13 -22 -13 -18 0 -56 -47 -77 -95 -31 -70 -12 -161 43 -212 70 -65 201 -68
270 -6 51 45 75 172 44 231 -23 43 -69 81 -123 102 -28 10 -53 17 -55 15z"/>
<path d="M3771 6182 c-78 -13 -151 -108 -151 -197 0 -111 85 -190 202 -188 50
1 67 6 102 31 101 73 113 206 28 295 -48 51 -109 71 -181 59z"/>
<path d="M5382 4889 c-41 -8 -102 -56 -120 -93 -17 -35 -23 -129 -11 -166 25
-71 102 -121 184 -121 143 0 234 139 176 268 -41 90 -131 134 -229 112z"/>
<path d="M3119 4094 c-51 -15 -113 -68 -129 -109 -15 -39 -12 -132 5 -164 8
-16 33 -45 56 -65 98 -83 243 -45 300 79 24 53 24 95 -2 150 -45 95 -134 137
-230 109z"/>
<path d="M4730 2803 c-55 -17 -117 -81 -126 -130 -11 -58 1 -130 29 -171 71
-108 250 -103 323 8 38 57 40 135 6 200 -26 49 -42 64 -89 85 -48 22 -93 24
-143 8z"/>
<path d="M1486 2694 c-99 -56 -140 -158 -101 -252 81 -192 359 -150 373 56 4
69 -24 130 -80 175 -46 37 -145 48 -192 21z"/>
</g>
</svg>
