<svg xmlns="http://www.w3.org/2000/svg" xmlns:xlink="http://www.w3.org/1999/xlink" version="1.0" viewBox="-12.7 -3 507.6 504.2" style="fill:#000" aria-label="Tech Pattern Concentric Irregular Rings Blank in Middle"><linearGradient xmlns:xlink="http://www.w3.org/1999/xlink" gradientUnits="userSpaceOnUse" id="a" x1="0" x2="489.24" xlink:actuate="onLoad" xlink:show="other" xlink:type="simple" y1="250" y2="250"><stop offset="0" style="stop-color:#fff"/><stop offset=".5" stop-opacity=".5" style="stop-color:#d9d9d9"/><stop offset="1" stop-opacity="0" style="stop-color:#dddfe2"/></linearGradient><path d="M209.011 381.483c-16.508 0-30.905-3.932-42.076-11.561-10.921-7.459-28.715-37.08-31.739-66.52-2.003-19.504 2.808-35.904 13.914-47.427 10.108-10.488 11.155-28.29 12.078-43.996 1.057-17.979 1.97-33.506 15.005-35.846 17.146-3.079 31.047 6.244 47.145 17.038 19.976 13.395 42.617 28.576 77.998 24.288 16.348-1.983 27.499 4.607 32.247 19.053 11.313 34.423-16.493 104.266-48.774 122.512-21.942 12.402-44.526 19.993-65.312 21.953-3.579.338-7.078.506-10.486.506zM149.25 256.11l.14.135c-11.024 11.439-15.798 27.732-13.807 47.117 3.012 29.33 20.71 58.822 31.571 66.239 13.402 9.153 31.49 12.952 52.306 10.99 20.732-1.955 43.263-9.529 65.158-21.905 32.162-18.179 59.866-87.76 48.596-122.052-4.683-14.248-15.69-20.743-31.831-18.789-35.524 4.304-58.229-10.919-78.261-24.351-16.027-10.747-29.869-20.03-46.859-16.978-12.733 2.286-13.638 17.672-14.686 35.486-.928 15.774-1.979 33.652-12.187 44.243l-.14-.135zm60.782 127.301c-17.818 0-33.389-4.364-45.435-12.802-5.91-4.14-12.867-13.425-18.61-24.837-6.463-12.842-10.84-27.163-12.325-40.323-2.329-20.63 2.321-38.04 13.446-50.348l.144.13-.144-.13c9.372-10.368 10.654-27.247 11.893-43.57 1.403-18.468 2.728-35.911 16.806-38.507 17.634-3.222 31.752 6.56 48.099 17.888 20.216 14.009 43.125 29.885 79.275 25.506 16.758-2.032 28.194 4.727 33.064 19.546 11.553 35.151-16.786 106.441-49.708 125.05-22.429 12.677-45.691 20.292-67.273 22.02-3.137.252-6.217.377-9.232.377zm-27.448-210.618c-2.185 0-4.416.196-6.706.615-13.783 2.542-15.097 19.841-16.489 38.155-1.245 16.388-2.532 33.334-11.992 43.801-11.048 12.223-15.664 29.527-13.349 50.043 2.512 22.254 15.767 54.374 30.772 64.884 14.009 9.813 32.826 14.087 54.412 12.357 21.526-1.724 44.734-9.322 67.113-21.971 32.804-18.542 61.04-89.57 49.531-124.59-4.805-14.62-16.089-21.286-32.648-19.282-4.191.508-8.209.745-12.061.745-29.507.002-49.55-13.891-67.482-26.318-14.142-9.8-26.609-18.439-41.101-18.439zm28.511 212.531c-18.805.001-35.714-4.633-48.834-14.026-6.082-4.354-12.748-13.275-18.29-24.476-6.006-12.138-10.199-25.952-11.807-38.898-1.897-15.275-1.192-36.99 12.943-53.694l.148.126-.148-.126c8.666-10.241 10.186-26.924 11.656-43.058 1.799-19.743 3.499-38.391 18.659-41.254 18.126-3.367 32.456 6.877 49.05 18.738 20.456 14.623 43.638 31.196 80.557 26.723 17.172-2.084 28.889 4.847 33.882 20.04 11.792 35.879-17.08 108.616-50.645 127.587-26.171 14.791-53.208 22.317-77.171 22.318zm-28.73-215.666a37.56 37.56 0 0 0-6.872.641c-14.871 2.808-16.558 21.315-18.343 40.907-1.476 16.194-3.002 32.94-11.747 43.274-14.044 16.597-14.742 38.197-12.854 53.395 2.733 21.998 14.955 52.379 29.938 63.106 13.053 9.345 29.889 13.955 48.608 13.956 23.895.001 50.863-7.509 76.979-22.271 33.445-18.904 62.215-91.378 50.466-127.128-4.927-14.993-16.497-21.83-33.466-19.775-37.064 4.493-60.315-12.129-80.829-26.793-14.36-10.263-27.018-19.312-41.88-19.312zm29.803 217.683c-20.042 0-38.16-5.079-52.244-15.355-13.213-9.641-25.774-35.926-29.219-61.142-4.024-29.457 4.522-47.521 12.4-57.487 7.988-10.105 9.705-26.559 11.366-42.471 2.199-21.069 4.276-40.969 20.567-44.077 18.616-3.553 33.167 7.165 50.015 19.574 20.696 15.243 44.153 32.521 81.823 27.955 17.586-2.132 29.584 4.969 34.7 20.533 5.666 17.24 2.539 43.977-8.364 71.522-10.913 27.568-27.068 49.476-43.216 58.602-26.235 14.828-53.453 22.346-77.828 22.346zm-68.911-133.863.152.12c-7.831 9.907-16.325 27.871-12.32 57.193 3.432 25.122 15.927 51.296 29.063 60.88 14.015 10.226 32.06 15.282 52.014 15.283 24.309.001 51.454-7.5 77.635-22.297 16.073-9.085 32.164-30.919 43.045-58.407 10.871-27.463 13.995-54.102 8.357-71.258-5.05-15.366-16.908-22.374-34.284-20.269-37.818 4.588-61.344-12.741-82.1-28.028-16.774-12.355-31.26-23.023-49.711-19.505-16.007 3.054-18.069 22.815-20.253 43.735-1.666 15.967-3.389 32.478-11.447 42.672l-.151-.119zm69.907 135.819c-21.734 0-40.859-5.703-55.576-16.622-11.787-8.745-22.75-29.897-27.281-52.634-2.44-12.243-2.952-24.518-1.481-35.498 1.673-12.485 5.804-23.271 12.278-32.058l.156.115-.156-.115c7.338-9.96 9.214-26.135 11.029-41.779 2.602-22.431 5.06-43.618 22.519-47.005 19.104-3.705 33.868 7.475 50.962 20.421 20.939 15.859 44.671 33.833 83.107 29.175 17.999-2.182 30.281 5.089 35.519 21.027 5.784 17.601 2.617 44.863-8.474 72.925-11.102 28.092-27.566 50.423-44.043 59.735-23.885 13.5-49.176 21.175-73.138 22.195a125.34 125.34 0 0 1-5.421.118zm-31.165-225.924c-2.362 0-4.78.227-7.274.711-17.179 3.332-19.621 24.382-22.206 46.668-1.821 15.694-3.703 31.922-11.103 41.965-6.434 8.734-10.541 19.459-12.205 31.879-1.466 10.937-.955 23.168 1.476 35.37 4.514 22.649 15.417 43.706 27.132 52.398 15.856 11.764 36.859 17.445 60.748 16.429 23.902-1.017 49.132-8.674 72.963-22.144 16.402-9.271 32.803-31.528 43.873-59.54 11.058-27.981 14.223-55.144 8.466-72.661-5.173-15.739-17.308-22.921-35.103-20.762-4.228.513-8.281.753-12.169.753-31.605.001-52.521-15.842-71.219-30.003-14.778-11.195-27.809-21.063-43.379-21.063zm32.227 227.915c-23.033 0-43.352-6.162-58.974-17.925-12.277-9.244-22.9-30.343-27.064-53.752-4.672-26.264-.694-51.048 10.914-67.997l.16.11-.16-.11c6.713-9.802 8.712-25.654 10.646-40.984 2.874-22.791 5.847-46.358 24.518-50.035 19.594-3.858 34.567 7.786 51.905 21.27 21.183 16.474 45.191 35.145 84.395 30.394 18.415-2.233 30.977 5.21 36.337 21.521 5.903 17.962 2.695 45.749-8.582 74.329-11.291 28.615-28.065 51.37-44.871 60.869-24.371 13.775-50.336 21.467-75.089 22.246-1.388.042-2.767.064-4.135.064zm-32.434-231.052c-2.417 0-4.894.236-7.452.74-18.395 3.623-21.35 27.048-24.207 49.702-1.939 15.376-3.945 31.276-10.711 41.155-11.551 16.865-15.506 41.544-10.852 67.709 4.147 23.318 14.712 44.321 26.915 53.509 16.479 12.409 38.221 18.558 62.863 17.782 24.69-.777 50.594-8.452 74.91-22.196 16.731-9.457 33.441-32.138 44.7-60.673 11.245-28.499 14.451-56.186 8.574-74.065-5.295-16.112-17.715-23.461-35.921-21.256-4.245.515-8.318.756-12.223.756-32.304.002-53.506-16.491-72.457-31.229-14.989-11.656-28.206-21.934-44.139-21.934zm33.502 233.056c-24.33.001-45.847-6.627-62.379-19.242-12.781-9.752-23.068-30.782-26.845-54.882-4.078-26.018-.058-50.959 11.031-68.427l.164.104-.164-.104c6.111-9.628 8.198-25.108 10.216-40.078 3.26-24.186 6.631-49.195 26.564-53.177 20.079-4.01 35.263 8.098 52.845 22.119 21.428 17.089 45.715 36.459 85.687 31.612 18.822-2.284 31.673 5.331 37.156 22.015 6.022 18.323 2.773 46.634-8.691 75.732-11.48 29.139-28.563 52.318-45.698 62.002-24.857 14.05-51.496 21.759-77.039 22.295-.954.022-1.903.031-2.847.031zm-33.712-236.193c-2.471 0-5.006.245-7.627.769-19.66 3.927-23.012 28.797-26.255 52.848-1.014 7.521-2.062 15.297-3.6 22.22-1.725 7.765-3.908 13.658-6.673 18.015-11.038 17.389-15.038 42.232-10.975 68.158 3.763 24.005 13.992 44.94 26.697 54.634 17.103 13.05 39.57 19.673 64.981 19.132 25.479-.535 52.055-8.227 76.856-22.245 17.06-9.643 34.079-32.747 45.528-61.806 11.432-29.016 14.678-57.229 8.683-75.468-5.418-16.486-18.123-24.005-36.74-21.75-40.135 4.864-64.488-14.558-85.976-31.694-15.2-12.125-28.602-22.813-44.899-22.813zm34.785 238.21c-25.622 0-48.34-7.097-65.788-20.57-13.301-10.27-23.255-31.215-26.628-56.024-3.494-25.711.569-50.804 11.148-68.845 5.533-9.435 7.577-23.821 9.741-39.051 3.642-25.634 7.408-52.14 28.655-56.44 20.567-4.162 35.959 8.411 53.782 22.969 21.673 17.703 46.237 37.769 86.981 32.83 19.233-2.333 32.369 5.451 37.976 22.509 6.14 18.684 2.851 47.519-8.8 77.135-11.67 29.663-29.062 53.265-46.526 63.135-25.343 14.324-52.656 22.05-78.986 22.343-.52.007-1.04.009-1.555.009zm-81.101-145.34.168.098c-10.536 17.968-14.581 42.97-11.098 68.596 3.359 24.711 13.258 45.559 26.48 55.769 17.729 13.69 40.918 20.789 67.099 20.48 26.265-.292 53.514-8.001 78.799-22.292 17.388-9.828 34.718-33.357 46.356-62.939 11.619-29.534 14.906-58.271 8.793-76.872-5.54-16.859-18.525-24.549-37.559-22.245-40.904 4.962-65.54-15.162-87.273-32.914-17.746-14.496-33.073-27.017-53.459-22.889-20.977 4.245-24.724 30.614-28.347 56.114-2.17 15.269-4.219 29.692-9.79 39.193l-.169-.099zm82.179 147.369c-26.912 0-50.834-7.573-69.203-21.91-13.838-10.801-23.465-31.641-26.412-57.178-2.923-25.324 1.184-50.565 11.267-69.252 4.975-9.22 7.037-23.146 9.219-37.889 1.972-13.322 4.012-27.097 8.376-38.135 4.955-12.53 12.287-19.629 22.416-21.704 21.052-4.313 36.652 8.725 54.717 23.82 21.919 18.317 46.761 39.077 88.278 34.047 19.655-2.381 33.066 5.573 38.795 23.004 6.259 19.045 2.928 48.405-8.91 78.538-11.859 30.186-29.561 54.212-47.353 64.268-25.829 14.599-53.815 22.341-80.933 22.39l-.257.001zm-84.177-148.247.171.092c-10.046 18.618-14.137 43.776-11.223 69.022 2.936 25.434 12.509 46.179 26.265 56.915 18.606 14.523 42.856 21.779 68.947 21.78 26.418.002 54.726-7.433 81.014-22.292 17.717-10.014 35.356-33.967 47.183-64.072 11.806-30.051 15.134-59.313 8.902-78.274-5.664-17.233-18.931-25.098-38.379-22.739-4.312.523-8.451.769-12.42.769-34.392.002-56.448-18.435-76.153-34.903-17.987-15.031-33.521-28.011-54.389-23.738-22.352 4.579-26.487 32.507-30.485 59.515-2.188 14.779-4.254 28.737-9.262 38.017l-.171-.092zm85.199 150.277c-27.358 0-52.903-7.757-72.561-23.251-14.183-11.179-23.732-32.444-26.2-58.343-2.331-24.469 1.927-50.505 11.39-69.647 4.437-8.975 6.484-22.382 8.652-36.577 4.18-27.376 8.918-58.404 32.975-63.388 21.538-4.46 37.346 9.039 55.649 24.672 22.165 18.931 47.284 40.391 89.576 35.263 20.063-2.432 33.764 5.694 39.615 23.499 6.378 19.405 3.006 49.29-9.019 79.941-12.048 30.71-30.06 55.159-48.182 65.401-26.465 14.959-55.053 22.43-81.895 22.43zm-87.196-151.154.174.086c-9.433 19.08-13.676 45.038-11.351 69.438 2.457 25.793 11.953 46.961 26.053 58.074 19.587 15.438 45.052 23.168 72.319 23.169 26.779.001 55.294-7.453 81.705-22.38 18.046-10.2 35.994-34.576 48.011-65.205 11.994-30.569 15.362-60.355 9.012-79.677-5.786-17.606-19.34-25.639-39.199-23.234-42.459 5.147-67.65-16.369-89.876-35.353-18.226-15.567-33.968-29.009-55.318-24.587-23.792 4.929-28.508 35.815-32.669 63.066-2.172 14.225-4.224 27.661-8.688 36.69l-.173-.087zm88.223 153.242c-28.52 0-55.283-8.236-75.923-24.65-14.749-11.73-23.98-32.867-25.992-59.518-1.8-23.853 2.505-50.033 11.517-70.031l.177.08-.177-.08c3.918-8.696 5.92-21.519 8.038-35.094 4.518-28.947 9.638-61.756 35.204-67.108 22.023-4.608 38.037 9.354 56.58 25.525 22.412 19.545 47.815 41.695 90.877 36.478 20.474-2.483 34.46 5.814 40.434 23.993 6.496 19.766 3.084 50.175-9.129 81.344-12.238 31.234-30.559 56.107-49.009 66.535-26.601 15.034-55.398 22.526-82.597 22.526zm-38.762-256.902c-2.684 0-5.447.281-8.315.882-25.303 5.297-30.401 37.965-34.899 66.787-2.123 13.602-4.128 26.449-8.068 35.193-8.986 19.942-13.279 46.051-11.483 69.842 2.003 26.541 11.182 47.581 25.846 59.242 20.569 16.359 47.249 24.567 75.68 24.568 27.134.001 55.863-7.475 82.407-22.478 18.375-10.386 36.632-35.186 48.839-66.338 12.18-31.087 15.591-61.398 9.122-81.08-5.909-17.98-19.745-26.185-40.019-23.729-4.367.53-8.556.779-12.576.779-35.777.001-58.401-19.731-78.604-37.349-16.039-13.987-30.182-26.319-47.93-26.319zm39.931 258.93c-1.205 0-2.409-.014-3.613-.042-29.286-.686-55.503-9.659-75.816-25.947-10.693-8.575-23.848-26.066-25.789-60.704-1.292-23.054 3.063-49.374 11.649-70.405 3.419-8.375 5.342-20.538 7.378-33.416 4.837-30.599 10.32-65.281 37.479-71.022 22.51-4.758 38.728 9.67 57.508 26.377 22.659 20.158 48.338 43.004 92.18 37.692 20.887-2.534 35.157 5.936 41.255 24.488 6.615 20.127 3.161 51.06-9.239 82.746-12.427 31.757-31.058 57.053-49.837 67.667-26.176 14.797-54.848 22.566-83.155 22.566zm-40.146-262.065c-2.736 0-5.556.29-8.484.909-26.897 5.686-32.357 40.228-37.175 70.703-2.039 12.901-3.966 25.086-7.402 33.502-8.566 20.981-12.91 47.237-11.621 70.236 1.933 34.494 15.012 51.897 25.644 60.422 20.246 16.235 46.381 25.177 75.582 25.862 1.199.028 2.403.042 3.604.042 28.241.001 56.844-7.751 82.964-22.514 18.704-10.572 37.27-35.795 49.666-67.471 12.368-31.605 15.819-62.439 9.232-82.483-6.032-18.354-20.15-26.728-40.839-24.224-4.395.533-8.614.784-12.66.784-36.471.003-59.373-20.377-79.825-38.572-16.248-14.454-30.574-27.196-48.686-27.196zm41.209 264.132c-1.632 0-3.26-.025-4.891-.076-30.043-.933-56.992-10.37-77.936-27.292-15.714-12.697-24.564-34.101-25.592-61.899-.826-22.326 3.47-48.121 11.788-70.769l.183.067-.183-.067c2.939-8.001 4.752-19.423 6.671-31.515 2.446-15.407 5.218-32.869 10.929-46.967 6.574-16.229 16.018-25.451 28.872-28.194 22.992-4.906 39.418 9.986 58.435 27.231 22.907 20.771 48.871 44.313 93.484 38.907 21.303-2.583 35.854 6.056 42.075 24.983 6.733 20.488 3.238 51.945-9.349 84.149-12.617 32.281-31.558 58-50.665 68.8-26.282 14.856-55.161 22.641-83.821 22.642zm-41.425-267.268c-2.788 0-5.664.299-8.653.937-12.718 2.714-22.071 11.859-28.593 27.96-5.694 14.057-8.463 31.496-10.905 46.882-1.923 12.111-3.739 23.551-6.69 31.588-8.301 22.602-12.588 48.343-11.764 70.62 1.024 27.683 9.824 48.988 25.448 61.611 20.877 16.868 47.747 26.276 77.704 27.206 30.189.938 60.791-6.849 88.508-22.515 19.033-10.757 37.909-36.404 50.495-68.603 12.556-32.123 16.048-63.482 9.342-83.886-6.156-18.729-20.56-27.275-41.66-24.719-4.426.537-8.672.79-12.747.79-37.162.001-60.346-21.025-81.045-39.794-16.456-14.923-30.963-28.077-49.44-28.077zm42.482 269.342c-2.055 0-4.109-.039-6.162-.117-30.799-1.179-58.482-11.08-80.057-28.635-16.331-13.289-24.878-34.519-25.402-63.104-.524-28.577 7.252-56.828 11.934-71.124l.185.06-.185-.06c2.477-7.564 4.148-18.148 5.918-29.353 5.133-32.507 11.522-72.963 42.168-79.559 23.477-5.054 40.107 10.303 59.361 28.085 23.155 21.384 49.397 45.623 94.79 40.12 21.72-2.634 36.552 6.178 42.896 25.478 6.852 20.848 3.316 52.83-9.459 85.551-12.807 32.804-32.057 58.948-51.494 69.933-26.398 14.921-55.483 22.725-84.493 22.725zm-42.699-272.477c-2.84 0-5.772.308-8.821.964-30.385 6.54-36.751 46.85-41.866 79.24-1.772 11.221-3.446 21.82-5.933 29.413-4.674 14.273-12.438 42.476-11.915 70.996.522 28.465 9.02 49.597 25.259 62.809 21.509 17.501 49.113 27.373 79.827 28.548 30.972 1.189 62.244-6.615 90.448-22.557 19.361-10.943 38.547-37.013 51.322-69.736 12.743-32.64 16.277-64.524 9.452-85.289-6.278-19.103-20.964-27.822-42.48-25.214-45.561 5.524-71.883-18.779-95.1-40.221-16.662-15.387-31.352-28.953-50.193-28.953zm43.75 274.559c-2.477 0-4.951-.056-7.427-.168-31.554-1.425-59.971-11.791-82.179-29.978-16.733-13.704-25.218-35.343-25.22-64.316-.002-19.937 3.953-43.315 12.088-71.471l.187.054-.187-.054c2.036-7.048 3.534-16.683 5.12-26.884 2.626-16.889 5.602-36.032 12.01-52.012 7.444-18.562 18.098-29.112 32.57-32.253 23.964-5.202 40.795 10.62 60.285 28.939 23.403 21.997 49.928 46.93 96.097 41.333 22.128-2.685 37.25 6.299 43.716 25.974 6.97 21.208 3.393 53.715-9.569 86.954-12.997 33.328-32.557 59.895-52.322 71.066-26.518 14.989-55.815 22.815-85.169 22.816zm-43.966-277.694c-2.892 0-5.88.317-8.99.991-14.336 3.111-24.899 13.584-32.291 32.018-6.392 15.939-9.365 35.059-11.987 51.927-1.588 10.213-3.088 19.86-5.131 26.932-8.125 28.121-12.074 51.464-12.073 71.363.002 28.851 8.439 50.389 25.078 64.015 22.142 18.134 50.48 28.47 81.95 29.891 31.748 1.431 63.696-6.381 92.388-22.598 19.69-11.129 39.186-37.622 52.151-70.869 12.931-33.158 16.505-65.566 9.562-86.691-6.401-19.477-21.371-28.365-43.3-25.71-4.489.544-8.797.801-12.931.801-38.543.002-62.286-22.318-83.478-42.237-16.871-15.856-31.744-29.833-50.948-29.833zm45.01 279.782c-2.895 0-5.79-.074-8.685-.224-15.804-.818-31.031-3.885-45.258-9.119-14.502-5.335-27.638-12.805-39.043-22.202-17.306-14.259-25.501-35.563-25.053-65.129.378-24.996 6.872-50.812 12.09-71.555l.167-.663.189.047-.189-.047c1.618-6.433 2.852-14.596 4.281-24.048 5.216-34.503 12.359-81.755 47.034-89.338 24.447-5.346 41.483 10.938 61.208 29.794 23.652 22.61 50.46 48.236 97.405 42.546 22.544-2.732 37.947 6.42 44.537 26.469 7.089 21.569 3.47 54.599-9.68 88.356-13.187 33.852-33.056 60.842-53.149 72.199-26.648 15.062-56.158 22.914-85.854 22.914zM179.65 128.878c-2.943 0-5.987.325-9.157 1.018-34.414 7.526-41.534 54.626-46.732 89.017-1.43 9.462-2.666 17.634-4.288 24.085l-.167.663c-5.213 20.723-11.701 46.515-12.078 71.466-.446 29.44 7.703 50.644 24.911 64.823 11.371 9.369 24.469 16.817 38.93 22.136 14.19 5.22 29.379 8.28 45.144 9.096 2.887.149 5.779.224 8.665.224 29.631.001 59.072-7.834 85.662-22.863 20.018-11.315 39.823-38.231 52.978-72.002 13.119-33.676 16.734-66.608 9.673-88.094-6.524-19.851-21.78-28.91-44.121-26.205-4.522.548-8.863.807-13.027.807-39.235.002-63.254-22.964-84.693-43.458-17.077-16.324-32.131-30.713-51.7-30.713zm46.266 285.011c-3.311 0-6.621-.096-9.936-.288-16.17-.938-31.766-4.182-46.356-9.643-14.87-5.566-28.35-13.311-40.068-23.02-37.055-30.704-24.407-86.24-15.171-126.79.968-4.249 1.882-8.263 2.711-12.117 1.224-5.689 2.235-12.677 3.406-20.767 2.539-17.544 5.698-39.377 12.803-57.629 8.348-21.446 20.359-33.623 36.72-37.227 24.932-5.492 42.17 11.257 62.13 30.65 23.901 23.222 50.989 49.543 98.714 43.758 22.96-2.784 38.646 6.541 45.358 26.965 7.208 21.929 3.548 55.484-9.79 89.758-13.377 34.375-33.555 61.789-53.978 73.332-26.78 15.138-56.51 23.018-86.543 23.018zM117.287 242.073l.19.041c-.83 3.856-1.744 7.871-2.712 12.122-9.213 40.452-21.831 95.852 15.04 126.404 11.684 9.682 25.127 17.405 39.956 22.955 14.553 5.447 30.111 8.683 46.242 9.619 33.31 1.935 66.598-5.911 96.266-22.68 20.347-11.501 40.462-38.84 53.807-73.134 13.306-34.193 16.963-67.65 9.783-89.496-6.648-20.226-22.19-29.457-44.943-26.701-4.555.552-8.93.813-13.126.814-39.924.003-64.221-23.61-85.906-44.679-19.88-19.315-37.047-35.997-61.776-30.549-16.223 3.574-28.143 15.673-36.441 36.989-7.089 18.211-10.245 40.02-12.78 57.544-1.172 8.098-2.184 15.091-3.411 20.793l-.189-.042zm109.661 173.916c-3.722 0-7.45-.119-11.18-.357-16.536-1.059-32.502-4.479-47.453-10.167-15.237-5.796-29.063-13.816-41.093-23.837-35.96-29.954-25.033-80.118-16.252-120.425 1.548-7.103 3.009-13.813 4.129-20.041.859-4.776 1.622-10.408 2.506-16.93 2.482-18.306 5.57-41.087 13.011-60.692 8.807-23.205 21.572-36.367 39.025-40.238 25.415-5.636 42.856 11.575 63.051 31.506 24.15 23.834 51.514 50.848 100.024 44.97 23.374-2.834 39.344 6.663 46.179 27.461 7.326 22.29 3.625 56.368-9.901 91.161-13.567 34.898-34.055 62.735-54.806 74.464-26.923 15.216-56.871 23.125-87.24 23.125zM115.289 241.196l.191.034c-1.121 6.235-2.584 12.948-4.132 20.055-8.758 40.204-19.658 90.24 16.121 120.044 11.997 9.993 25.786 17.992 40.982 23.773 14.915 5.674 30.843 9.086 47.34 10.142 34.087 2.184 68.047-5.675 98.204-22.72 20.676-11.686 41.1-39.45 54.635-74.267 13.494-34.71 17.192-68.691 9.894-90.898-6.771-20.6-22.592-30.004-45.764-27.196-4.591.556-8.998.82-13.226.82-40.612.002-65.187-24.256-87.117-45.899-20.114-19.851-37.488-36.995-62.694-31.403-17.314 3.841-29.988 16.924-38.745 39.997-7.425 19.563-10.51 42.321-12.989 60.607-.848 6.255-1.649 12.162-2.509 16.947l-.191-.036zm112.684 176.899c-4.133 0-8.272-.144-12.418-.433-16.902-1.179-33.237-4.775-48.551-10.691-15.605-6.027-29.776-14.322-42.119-24.655-15.765-13.197-23.888-31.04-24.834-54.549-.822-20.426 3.875-42.261 8.019-61.526 1.991-9.258 3.872-18.002 5.029-25.951l.192.028-.192-.028c.527-3.625 1.05-7.877 1.603-12.379 4.517-36.741 12.077-98.235 54.552-107.719 25.9-5.78 43.543 11.894 63.972 32.362 24.4 24.446 52.058 52.153 101.335 46.181 23.785-2.883 40.042 6.783 47.001 27.957 7.444 22.65 3.702 57.253-10.011 92.562-13.756 35.423-34.554 63.683-55.634 75.598-27.069 15.3-57.243 23.242-87.944 23.243zm-48.977-298.621c-3.098 0-6.308.351-9.657 1.099-42.208 9.424-49.747 70.747-54.251 107.387-.554 4.504-1.077 8.758-1.605 12.387-1.158 7.962-3.041 16.712-5.033 25.977-4.139 19.242-8.831 41.052-8.011 61.429.942 23.393 9.019 41.144 24.695 54.267 12.311 10.305 26.444 18.578 42.009 24.59 15.278 5.901 31.575 9.489 48.438 10.665 34.868 2.434 69.497-5.439 100.143-22.76 21.004-11.872 41.738-40.059 55.463-75.4 13.681-35.228 17.421-69.733 10.005-92.3-6.894-20.975-23.004-30.548-46.585-27.692-4.625.561-9.069.826-13.329.826-41.303.003-66.152-24.902-88.327-47.119-17.695-17.729-33.293-33.356-53.955-33.356zm49.995 300.731c-4.54 0-9.09-.171-13.649-.514-17.268-1.299-33.972-5.072-49.648-11.214-15.972-6.258-30.488-14.828-43.144-25.472-15.681-13.188-23.811-30.619-24.854-53.289-.909-19.766 3.691-40.995 7.751-59.726 2.374-10.953 4.616-21.298 5.654-30.571l.193.022-.193-.022c.237-2.115.479-4.412.737-6.862 1.857-17.631 4.663-44.274 12.688-67.334 9.564-27.48 24.483-43.676 44.343-48.138 26.383-5.929 44.228 12.213 64.891 33.218 24.65 25.058 52.585 53.457 102.647 47.392 24.205-2.935 40.74 6.905 47.822 28.452 7.563 23.01 3.779 58.137-10.122 93.964-13.947 35.945-35.055 64.63-56.463 76.73-27.22 15.387-57.62 23.364-88.653 23.364zm-50.214-303.866c-3.149 0-6.414.359-9.823 1.125-19.72 4.431-34.544 20.542-44.061 47.886-8.011 23.018-10.814 49.635-12.669 67.247-.258 2.451-.5 4.749-.737 6.865-1.041 9.292-3.285 19.647-5.66 30.61-4.054 18.707-8.649 39.911-7.742 59.625 1.038 22.556 9.122 39.895 24.716 53.01 12.624 10.617 27.104 19.165 43.036 25.408 15.64 6.128 32.307 9.892 49.536 11.189 35.645 2.679 70.946-5.202 102.081-22.8 21.333-12.058 42.376-40.668 56.292-76.533 13.869-35.746 17.651-70.775 10.115-93.702-7.017-21.35-23.409-31.095-47.406-28.188-4.662.565-9.14.833-13.434.833-41.991.003-67.117-25.547-89.537-48.339-17.902-18.196-33.681-34.236-54.707-34.236zm51.016 305.972c-4.888 0-9.779-.196-14.662-.589-17.634-1.42-34.707-5.369-50.746-11.738-16.34-6.488-31.201-15.333-44.171-26.289-15.688-13.252-23.841-30.424-24.923-52.496-.946-19.291 3.445-39.147 7.69-58.348 2.726-12.327 5.3-23.971 6.12-34.302l.194.015-.194-.015c2.688-33.868 8.982-113.18 59.382-124.571 26.867-6.073 44.914 12.533 65.81 34.075 24.9 25.67 53.124 54.762 103.96 48.603 24.613-2.983 41.438 7.026 48.644 28.948 16.444 50.033-21.421 147.171-67.525 173.229-15.937 9.008-33.152 15.535-51.165 19.398a183.074 183.074 0 0 1-38.414 4.08zm-51.235-309.106c-3.2 0-6.521.368-9.989 1.152-50.12 11.328-56.399 90.44-59.079 124.223-.822 10.358-3.4 22.014-6.128 34.355-8.386 37.922-17.89 80.904 17.104 110.463 12.938 10.928 27.763 19.751 44.064 26.224 16.003 6.354 33.038 10.295 50.633 11.712 4.958.399 9.911.598 14.842.598 31.298.001 61.857-7.995 89.177-23.436 21.662-12.244 43.015-41.277 57.12-77.665 14.057-36.264 17.88-71.817 10.226-95.104-7.14-21.724-23.816-31.641-48.228-28.684-4.7.57-9.211.84-13.541.84-42.677.002-68.081-26.193-90.745-49.558-18.106-18.668-34.065-35.12-55.456-35.12zm52.226 311.224c-5.287 0-10.579-.226-15.865-.678-17.999-1.541-35.442-5.666-51.843-12.262-16.708-6.719-31.915-15.839-45.198-27.105-35.316-29.955-25.726-72.117-17.264-109.316 3.064-13.468 5.957-26.189 6.49-37.39 1.346-28.298 5.294-52.507 11.735-71.954 10.376-31.327 26.949-49.783 49.259-54.854 27.35-6.216 45.598 12.853 66.727 34.932 25.15 26.282 53.657 56.071 105.273 49.814 25.033-3.033 42.137 7.147 49.465 29.444 16.688 50.775-21.703 149.335-68.464 175.764-16.185 9.148-33.699 15.748-52.053 19.616a185.443 185.443 0 0 1-38.262 3.989zM107.298 237.686l.194.009c-.534 11.235-3.432 23.973-6.499 37.458-8.437 37.091-18 79.13 17.137 108.933 13.251 11.24 28.422 20.338 45.091 27.042 16.365 6.581 33.77 10.698 51.731 12.235a185.184 185.184 0 0 0 54.015-3.304c18.315-3.86 35.791-10.446 51.942-19.574 46.639-26.361 84.93-124.663 68.285-175.305-7.263-22.099-24.226-32.187-49.049-29.18-4.737.574-9.285.846-13.649.846-43.364.002-69.044-26.838-91.951-50.777-21.048-21.995-39.227-40.989-66.36-34.822-22.169 5.039-38.647 23.408-48.976 54.597-6.43 19.413-10.372 43.587-11.716 71.85l-.195-.008zM231.62 426.521c-42.198.001-83.932-14.076-116.078-41.448-35.573-30.29-25.83-71.718-17.234-108.269 3.394-14.433 6.6-28.065 6.797-39.998l.194.003-.194-.003c.204-12.299 1.747-44.054 11.664-73.208 10.815-31.796 27.955-50.582 50.943-55.836 27.833-6.36 46.283 13.172 67.645 35.79 25.4 26.893 54.186 57.372 106.587 51.024 25.448-3.085 42.836 7.269 50.287 29.941 16.932 51.517-21.986 151.497-69.403 178.299-28.15 15.91-59.808 23.704-91.208 23.705zm-53.5-319.585c-3.303 0-6.731.385-10.32 1.205-22.848 5.221-39.893 23.922-50.662 55.582-9.899 29.102-11.44 60.809-11.643 73.09-.198 11.974-3.409 25.627-6.808 40.08-8.57 36.443-18.284 77.748 17.108 107.884 32.072 27.31 73.72 41.355 115.824 41.356 31.337.001 62.923-7.778 91.018-23.657 47.295-26.732 86.113-126.455 69.225-177.839-7.386-22.473-24.632-32.736-49.871-29.676-52.589 6.376-81.453-24.182-106.916-51.142-18.515-19.603-34.837-36.883-56.955-36.883zm54.45 321.733c-43.278 0-86.226-14.587-119.363-42.908-35.915-30.695-25.953-71.548-17.163-107.592 3.721-15.261 7.237-29.676 7.064-42.235-.264-19.187 2.641-48.824 11.586-74.462 5.121-14.679 11.729-26.824 19.641-36.099 9.251-10.844 20.351-17.816 32.993-20.72 28.316-6.505 46.967 13.493 68.561 36.648 25.651 27.504 54.724 58.677 107.901 52.233 25.861-3.135 43.535 7.39 51.109 30.437 8.036 24.451 4.086 61.674-10.566 99.572-14.707 38.04-37.054 68.418-59.776 81.261-28.346 16.023-60.255 23.865-91.987 23.865zM177.9 103.802c-3.354 0-6.838.393-10.486 1.231-12.558 2.885-23.588 9.813-32.784 20.593-7.88 9.238-14.465 21.342-19.57 35.975-8.928 25.59-11.828 55.175-11.564 74.328.173 12.609-3.347 27.047-7.075 42.333-8.763 35.935-18.695 76.664 17.038 107.204 33.063 28.258 75.927 42.814 119.109 42.816 31.669.002 63.506-7.825 91.797-23.815 47.952-27.103 87.296-128.247 70.165-180.373-7.509-22.848-25.036-33.282-50.693-30.172-4.815.584-9.434.86-13.87.86-44.736.001-70.968-28.129-94.362-53.214-18.72-20.073-35.222-37.766-57.705-37.766zm55.825 327.004c-6.47 0-12.954-.322-19.439-.968-38.542-3.84-75.269-19.249-103.414-43.388-36.325-31.153-26.092-71.557-17.064-107.204 4.048-15.982 7.871-31.078 7.303-44.183-.777-17.911 1.769-48.487 11.501-75.714 5.317-14.875 12.178-27.218 20.393-36.684 9.566-11.023 20.984-18.128 33.937-21.119 28.802-6.65 47.651 13.813 69.477 37.506 25.901 28.116 55.259 59.983 109.216 53.443 26.277-3.184 44.233 7.511 51.931 30.933 8.155 24.811 4.163 62.558-10.677 100.974-14.897 38.563-37.554 69.364-60.605 82.393-16.929 9.569-35.338 16.388-54.717 20.269a192.601 192.601 0 0 1-37.842 3.742zM177.68 100.668c-3.405 0-6.944.402-10.651 1.257-12.872 2.971-24.221 10.035-33.731 20.995-8.183 9.43-15.02 21.731-20.321 36.561-9.713 27.174-12.254 57.69-11.479 75.566.571 13.162-3.259 28.285-7.314 44.295-9 35.538-19.202 75.817 16.94 106.814 28.085 24.088 64.736 39.463 103.199 43.296 19.208 1.914 38.442.983 57.167-2.768 19.338-3.873 37.709-10.678 54.602-20.226 22.975-12.986 45.567-43.713 60.433-82.195 14.809-38.334 18.798-75.984 10.671-100.712-7.633-23.224-25.45-33.828-51.515-30.669-4.852.588-9.512.867-13.983.867-45.425.003-71.928-28.773-95.566-54.433-18.923-20.543-35.604-38.648-58.452-38.648zm57.016 332.271c-6.859 0-13.74-.357-20.621-1.072-39.285-4.084-76.767-19.969-105.539-44.727-36.789-31.656-26.247-71.71-16.946-107.049 4.374-16.617 8.505-32.313 7.522-45.899-2.676-37.006 10.592-122.567 67.444-135.753 29.285-6.792 48.335 14.134 70.393 38.365 26.152 28.727 55.794 61.285 110.532 54.652 26.689-3.237 44.932 7.633 52.753 31.429 8.273 25.171 4.24 63.442-10.789 102.375-15.087 39.087-38.054 70.311-61.433 83.526-17.177 9.709-35.885 16.602-55.605 20.487a194.97 194.97 0 0 1-37.711 3.666zM99.501 234.163c.987 13.65-3.152 29.377-7.534 46.026-9.272 35.229-19.781 75.158 16.823 106.655 28.713 24.707 66.118 40.558 105.326 44.635 19.58 2.035 39.168 1.165 58.217-2.588 19.679-3.877 38.348-10.755 55.489-20.444 23.304-13.172 46.206-44.322 61.262-83.328 14.997-38.852 19.028-77.025 10.782-102.114-7.756-23.598-25.853-34.375-52.337-31.165-4.892.593-9.589.875-14.097.875-46.11.002-72.889-29.419-96.769-55.651-21.976-24.14-40.954-44.987-70.018-38.248-56.609 13.131-69.812 98.444-67.144 135.347zm136.161 200.912c-7.247 0-14.52-.393-21.797-1.18-40.029-4.328-78.265-20.688-107.664-46.066-37.296-32.195-26.415-71.98-16.813-107.081 4.7-17.182 9.139-33.412 7.728-47.428-1.754-17.433.156-48.377 11.313-78.212 8.657-23.149 25.701-52.312 57.743-59.777 29.766-6.935 49.018 14.455 71.308 39.223 26.403 29.338 56.325 62.59 111.848 55.861 27.102-3.285 45.631 7.755 53.575 31.926 8.391 25.532 4.316 64.327-10.9 103.777-15.278 39.61-38.553 71.258-62.262 84.658-17.425 9.849-36.432 16.815-56.493 20.705a197.445 197.445 0 0 1-37.586 3.594zM97.503 233.28c1.418 14.088-3.031 30.351-7.74 47.569-4.891 17.88-9.948 36.37-9.2 54.619.849 20.728 9.319 37.758 25.893 52.065 29.34 25.327 67.501 41.655 107.452 45.974 19.954 2.158 39.894 1.347 59.267-2.409 20.02-3.881 38.987-10.833 56.376-20.661 23.632-13.357 46.844-44.931 62.09-84.46 15.185-39.369 19.257-78.067 10.894-103.516-7.879-23.974-26.259-34.922-53.16-31.662-4.931.598-9.668.882-14.212.882-46.797.003-73.848-30.063-97.972-56.869-22.208-24.677-41.387-45.989-70.931-39.105-31.874 7.426-48.844 36.474-57.467 59.535-10.419 27.866-13.178 59.273-11.29 78.038zm139.121 203.933a206.15 206.15 0 0 1-22.969-1.289c-40.772-4.573-79.762-21.408-109.789-47.406-37.841-32.762-26.594-72.345-16.672-107.267 5.026-17.689 9.773-34.397 7.925-48.803-2.395-18.667.142-50.476 11.21-79.457 16.241-42.527 41.298-56.518 59.457-60.768 30.251-7.08 49.701 14.777 72.222 40.082 26.654 29.949 56.862 63.894 113.165 57.07 27.522-3.338 46.331 7.876 54.398 32.423 8.51 25.892 4.393 65.211-11.012 105.179-15.469 40.133-39.054 72.205-63.091 85.791-17.673 9.989-36.979 17.029-57.38 20.922a199.904 199.904 0 0 1-37.464 3.523zM177.021 91.265c-3.558 0-7.26.427-11.145 1.336-18.068 4.228-43.003 18.161-59.183 60.528-11.044 28.918-13.577 60.65-11.188 79.269 1.858 14.485-2.899 31.23-7.937 48.959-5.056 17.795-10.284 36.195-9.598 54.439.778 20.718 9.332 37.867 26.151 52.429 29.968 25.946 68.884 42.749 109.578 47.313 20.326 2.28 40.62 1.529 60.318-2.23 20.36-3.886 39.626-10.911 57.262-20.879 23.961-13.543 47.482-45.54 62.919-85.592 15.373-39.887 19.487-79.109 11.005-104.917-8.002-24.349-26.673-35.467-53.982-32.158-4.973.603-9.746.889-14.328.889-47.48.001-74.808-30.708-99.173-58.086-19.537-21.952-36.758-41.3-60.699-41.3zm60.56 348.089c-8.016 0-16.071-.467-24.136-1.403-41.515-4.818-81.26-22.129-111.915-48.745-38.415-33.354-26.784-72.788-16.522-107.58 5.353-18.148 10.409-35.29 8.114-50.051-2.888-18.577-.575-50.735 11.102-80.699 6.106-15.669 13.992-28.803 23.438-39.037 10.837-11.741 23.534-19.386 37.739-22.724 30.735-7.22 50.384 15.098 73.137 40.942 26.905 30.559 57.392 65.194 114.481 58.278 27.932-3.387 47.029 7.997 55.221 32.919 8.628 26.252 4.469 66.094-11.123 106.58-15.659 40.657-39.554 73.152-63.919 86.924-17.921 10.13-37.526 17.242-58.268 21.14a202.307 202.307 0 0 1-37.349 3.456zM176.8 88.131c-3.609 0-7.367.435-11.31 1.362-18.545 4.357-44.165 18.568-60.904 61.524-11.651 29.897-13.96 61.972-11.08 80.498 2.308 14.848-2.76 32.03-8.125 50.221-5.229 17.73-10.637 36.063-10.017 54.326.704 20.738 9.346 38.025 26.421 52.85 30.596 26.566 70.267 43.844 111.704 48.652 20.699 2.401 41.345 1.712 61.368-2.05 20.701-3.89 40.264-10.988 58.149-21.096 24.29-13.729 48.12-46.15 63.747-86.725 15.562-40.404 19.718-80.15 11.117-106.319-8.125-24.724-27.073-36.016-54.804-32.655-5.014.608-9.825.896-14.445.897-48.165.001-75.767-31.353-100.375-59.303-19.74-22.421-37.139-42.182-61.446-42.182zm61.734 353.367a212.69 212.69 0 0 1-25.299-1.519c-42.258-5.062-82.758-22.848-114.04-50.084-39.015-33.968-26.983-73.298-16.368-107.998 5.68-18.567 11.045-36.104 8.298-51.195-3.372-18.529-1.282-51.051 10.989-81.938 6.305-15.87 14.449-29.203 24.207-39.629 11.157-11.922 24.176-19.703 38.695-23.128 31.213-7.364 51.066 15.419 74.05 41.801 27.156 31.171 57.941 66.496 115.799 59.487 28.351-3.438 47.729 8.119 56.043 33.415 8.746 26.611 4.546 66.978-11.235 107.982-15.849 41.181-40.054 74.099-64.748 88.056-18.17 10.27-38.073 17.456-59.156 21.357a204.54 204.54 0 0 1-37.235 3.393zM91.507 230.633c2.764 15.184-2.615 32.765-8.309 51.378-5.41 17.683-11.003 35.968-10.452 54.269.626 20.782 9.361 38.224 26.703 53.322 31.224 27.185 71.65 44.939 113.831 49.991 21.071 2.523 42.071 1.895 62.418-1.871 21.041-3.894 40.903-11.064 59.035-21.313 24.618-13.915 48.759-46.759 64.577-87.858 15.75-40.922 19.947-81.192 11.228-107.721-8.249-25.099-27.482-36.562-55.627-33.151a120.9 120.9 0 0 1-14.563.904c-48.851.002-76.724-31.997-101.575-60.521-22.902-26.287-42.68-48.989-73.668-41.678-14.443 3.408-27.396 11.151-38.5 23.016-9.725 10.391-17.843 23.683-24.13 39.507-12.243 30.817-14.33 63.252-10.968 81.726zm147.976 213.011c-8.777 0-17.61-.545-26.459-1.637-43-5.306-84.256-23.568-116.166-51.423-39.636-34.598-27.19-73.863-16.209-108.505 6.007-18.951 11.681-36.851 8.477-52.249-3.851-18.513-1.984-51.411 10.871-83.174 6.504-16.071 14.908-29.604 24.98-40.224 11.478-12.103 24.819-20.021 39.652-23.534 31.698-7.507 51.749 15.741 74.963 42.661 27.408 31.781 58.471 67.8 117.117 60.694 28.765-3.489 48.428 8.24 56.866 33.912 8.864 26.971 4.623 67.862-11.347 109.383-16.04 41.704-40.554 75.045-65.576 89.188-18.418 10.41-38.62 17.669-60.044 21.574-12.177 2.223-24.594 3.334-37.125 3.334zM89.509 229.751c3.224 15.498-2.465 33.445-8.488 52.446-5.595 17.652-11.381 35.904-10.901 54.26.546 20.845 9.376 38.455 26.994 53.835 31.852 27.804 73.033 46.033 115.958 51.33 21.443 2.646 42.796 2.077 63.468-1.691 21.381-3.898 41.542-11.142 59.922-21.53 24.946-14.1 49.397-47.367 65.405-88.99 15.938-41.44 20.177-82.233 11.34-109.122-8.372-25.474-27.889-37.109-56.45-33.648a122.09 122.09 0 0 1-14.682.911c-49.539.004-77.682-32.64-102.775-61.738-23.132-26.824-43.11-49.987-74.58-42.537-14.758 3.495-28.034 11.376-39.46 23.423-10.037 10.584-18.415 24.076-24.901 40.102-12.824 31.688-14.69 64.494-10.85 82.949zm150.92 216.042c-9.156 0-18.373-.586-27.613-1.758-43.744-5.551-85.753-24.289-118.291-52.762-40.277-35.243-27.405-74.474-16.048-109.087 6.334-19.306 12.318-37.541 8.654-53.229-5.199-22.259-.879-56.179 10.75-84.406 6.704-16.273 15.369-30.007 25.754-40.82 11.8-12.286 25.463-20.34 40.61-23.941 32.183-7.65 52.431 16.063 75.877 43.52 27.659 32.391 59.006 69.104 118.435 61.902 29.18-3.539 49.127 8.362 57.688 34.41 8.983 27.332 4.7 68.746-11.458 110.784-16.23 42.228-41.054 75.992-66.405 90.321-18.666 10.551-39.166 17.882-60.931 21.792-12.142 2.182-24.523 3.274-37.022 3.274zM176.139 78.73c-3.761 0-7.683.46-11.804 1.439-15.073 3.583-28.673 11.601-40.42 23.832-10.351 10.777-18.99 24.47-25.675 40.698-11.6 28.158-15.912 61.983-10.73 84.169 3.689 15.794-2.311 34.079-8.663 53.439-5.786 17.633-11.768 35.867-11.361 54.292.462 20.926 9.39 38.715 27.294 54.382 32.48 28.423 74.417 47.128 118.084 52.669 21.815 2.768 43.522 2.259 64.518-1.512 21.722-3.902 42.181-11.219 60.809-21.748 25.275-14.286 50.035-47.976 66.234-90.122 16.126-41.957 20.407-83.275 11.451-110.524-8.496-25.85-28.305-37.656-57.272-34.145-5.135.623-10.07.919-14.803.919-50.222.004-78.639-33.284-103.974-62.954-20.351-23.831-38.286-44.834-63.688-44.834zm65.231 369.214c-9.531 0-19.136-.626-28.765-1.881-44.486-5.795-87.251-25.008-120.417-54.1-40.931-35.904-27.623-75.127-15.881-109.734 6.662-19.636 12.955-38.183 8.828-54.145-3.382-13.078-3.405-30.574-.066-49.266 3.617-20.25 10.722-39.582 20.547-55.906 14.867-24.701 35.007-40.687 58.245-46.23 14.939-3.565 28.252-.731 41.898 8.915 12.179 8.61 23.211 21.655 34.891 35.465 27.91 33.002 59.54 70.406 119.753 63.11 29.588-3.59 49.826 8.483 58.511 34.906 9.101 27.691 4.775 69.63-11.57 112.186-16.421 42.751-41.555 76.939-67.234 91.453-18.915 10.691-39.713 18.096-61.819 22.009-12.105 2.145-24.451 3.218-36.921 3.218zM175.919 75.596c-3.811 0-7.79.469-11.969 1.465-23.133 5.518-43.19 21.443-58.002 46.052-9.8 16.283-16.888 35.569-20.497 55.773-3.329 18.638-3.308 36.075.06 49.1 4.156 16.074-2.155 34.674-8.836 54.367-5.98 17.625-12.164 35.851-11.832 54.357.377 21.022 9.406 38.999 27.601 54.959 33.108 29.042 75.8 48.222 120.211 54.007 22.188 2.89 44.248 2.442 65.568-1.332 22.062-3.906 42.819-11.296 61.695-21.965 25.603-14.471 50.673-48.585 67.062-91.255 16.315-42.475 20.637-84.316 11.563-111.925-8.619-26.225-28.708-38.202-58.095-34.642-5.177.628-10.152.926-14.923.926-50.908.004-79.596-33.928-105.173-64.171-20.553-24.3-38.665-45.716-64.433-45.716zm66.39 374.501c-9.907 0-19.894-.668-29.912-2.006-45.229-6.04-88.749-25.728-122.543-55.439-41.601-36.573-27.848-75.813-15.714-110.434 6.99-19.944 13.592-38.782 8.999-55.006-3.642-12.864-3.893-30.18-.707-48.757 3.412-19.893 10.328-39.135 20.001-55.646 10.763-18.37 30.09-41.824 61.043-49.233 15.161-3.628 28.649-.739 42.45 9.094 12.319 8.777 23.458 22.072 35.251 36.147 28.162 33.612 60.083 71.71 121.072 64.317 30.01-3.639 50.526 8.605 59.334 35.403 9.219 28.051 4.852 70.513-11.681 113.587-16.611 43.275-42.055 77.886-68.063 92.586-19.163 10.831-40.26 18.309-62.706 22.227-12.072 2.106-24.384 3.16-36.824 3.16zm-66.61-377.634c-3.863 0-7.894.476-12.133 1.491-30.82 7.377-50.073 30.746-60.798 49.052-9.65 16.471-16.55 35.668-19.953 55.515-3.176 18.521-2.928 35.775.698 48.585 4.627 16.342-1.995 35.237-9.006 55.24-6.178 17.628-12.566 35.855-12.311 54.452.29 21.129 9.421 39.303 27.914 55.562 33.737 29.66 77.184 49.316 122.338 55.346 22.56 3.013 44.973 2.625 66.618-1.153 22.402-3.909 43.457-11.372 62.581-22.181 25.931-14.657 51.311-49.194 67.891-92.387 16.503-42.993 20.868-85.358 11.675-113.326-8.742-26.6-29.114-38.749-58.918-35.139-5.222.633-10.232.934-15.045.934-51.587.001-80.554-34.574-106.371-65.387-20.756-24.773-39.049-46.604-65.18-46.604zm67.544 379.789c-10.28 0-20.65-.711-31.056-2.133-45.972-6.284-90.247-26.448-124.669-56.777-42.282-37.254-28.077-76.53-15.544-111.182 7.318-20.233 14.23-39.344 9.168-55.821-8.317-27.074-.709-70.636 18.09-103.58 11.147-19.535 31.275-44.465 63.858-52.29 15.379-3.694 29.045-.748 43.003 9.272 12.458 8.943 23.704 22.489 35.611 36.829 28.414 34.223 60.626 73.011 122.391 65.524 30.424-3.691 51.226 8.727 60.157 35.9 9.337 28.411 4.929 71.398-11.794 114.988-16.802 43.798-42.556 78.833-68.891 93.718-19.411 10.972-40.807 18.523-63.593 22.444-12.04 2.071-24.319 3.108-36.731 3.108zM81.513 226.224c5.099 16.601-1.834 35.771-9.174 56.067-6.379 17.637-12.975 35.875-12.797 54.573.202 21.246 9.437 39.624 28.233 56.185 34.365 30.279 78.568 50.41 124.465 56.684 22.932 3.135 45.698 2.807 67.668-.973 22.742-3.913 44.096-11.449 63.468-22.399 26.26-14.843 51.95-49.803 68.72-93.519 16.691-43.51 21.098-86.398 11.787-114.727-8.865-26.976-29.522-39.3-59.741-35.636-5.262.638-10.317.941-15.167.942-52.275.003-81.509-35.216-107.569-66.604-24.054-28.971-44.827-53.992-78.224-45.971-32.448 7.793-52.502 32.636-63.611 52.105-21.246 37.23-25.166 80.134-18.058 103.273zm162.662 228.184c-10.652 0-21.403-.753-32.197-2.262-46.714-6.53-91.745-27.169-126.795-58.116-42.974-37.944-28.31-77.271-15.373-111.97 7.645-20.506 14.867-39.874 9.336-56.595-4.127-12.477-4.83-29.418-1.978-47.704 2.992-19.188 9.512-38.21 18.854-55.012 7.721-13.886 17.016-25.606 27.627-34.834 11.763-10.23 24.903-17.146 39.056-20.556 15.602-3.759 29.442-.756 43.555 9.45 12.597 9.11 23.951 22.906 35.97 37.511 28.666 34.833 61.161 74.317 123.71 66.731 30.84-3.737 51.925 8.848 60.98 36.397 9.456 28.771 5.005 72.281-11.905 116.389-16.992 44.321-43.056 79.779-69.72 94.851-19.659 11.112-41.354 18.736-64.481 22.661-12.006 2.04-24.255 3.059-36.639 3.059zM79.514 225.343c5.574 16.851-1.67 36.281-9.341 56.852-6.583 17.655-13.389 35.91-13.29 54.714.112 21.373 9.453 39.962 28.556 56.828 34.994 30.898 79.952 51.504 126.592 58.023 23.304 3.258 46.424 2.99 68.717-.793 23.082-3.917 44.734-11.526 64.354-22.616 26.588-15.028 52.588-50.412 69.549-94.652 16.879-44.027 21.327-87.44 11.899-116.129-8.99-27.351-29.932-39.844-60.564-36.133-5.306.643-10.4.949-15.29.949-52.958.002-82.466-35.861-108.766-67.82-24.284-29.508-45.257-54.993-79.134-46.831-14.092 3.395-27.177 10.283-38.892 20.471-10.577 9.198-19.843 20.883-27.542 34.73-9.32 16.762-15.824 35.74-18.81 54.883-2.843 18.228-2.146 35.105 1.962 47.524zm165.589 231.224c-11.022 0-22.154-.797-33.334-2.393-47.457-6.774-93.242-27.888-128.922-59.454-43.675-38.64-28.547-78.036-15.2-112.794 7.973-20.763 15.504-40.375 9.502-57.334-9.168-25.9-2.761-67.675 15.58-101.591 7.926-14.657 17.573-27.067 28.671-36.885 12.311-10.89 26.078-18.246 40.919-21.864 15.826-3.792 29.843-.715 44.113 9.683 12.736 9.28 24.192 23.317 36.321 38.178 28.913 35.426 61.686 75.578 125.033 67.901 31.251-3.79 52.625 8.969 61.803 36.894 9.574 29.131 5.082 73.165-12.017 117.791-17.183 44.844-43.556 80.726-70.549 95.983-19.908 11.253-41.901 18.95-65.368 22.878-11.976 2.004-24.195 3.007-36.552 3.007zM174.962 63.085c-3.992 0-8.163.494-12.552 1.546-14.779 3.603-28.49 10.929-40.753 21.777-11.064 9.788-20.682 22.162-28.587 36.778-18.293 33.826-24.69 75.472-15.556 101.276 6.051 17.094-1.505 36.771-9.505 57.603-6.788 17.678-13.808 35.957-13.789 54.876.021 21.507 9.469 40.311 28.884 57.488 35.623 31.516 81.336 52.598 128.719 59.361 23.675 3.38 47.148 3.174 69.767-.613 23.422-3.921 45.372-11.603 65.24-22.833 26.916-15.214 53.226-51.021 70.377-95.784 17.068-44.545 21.558-88.482 12.011-117.53-9.113-27.727-30.34-40.393-61.387-36.63-5.354.649-10.493.958-15.427.958-53.644.002-83.419-36.485-109.955-68.998-21.377-26.196-40.214-49.275-67.487-49.275zm71.066 395.642c-11.39 0-22.903-.842-34.469-2.526-48.2-7.019-94.74-28.608-131.048-60.793-44.385-39.343-28.787-78.819-15.025-113.648 8.301-21.008 16.142-40.851 9.666-58.042-9.503-25.227-3.594-66.628 14.369-100.681 17.26-32.719 42.977-54.7 72.412-61.893 16.046-3.858 30.239-.725 44.665 9.859 12.875 9.447 24.438 23.734 36.68 38.86 29.165 36.037 62.213 76.883 126.353 69.109 31.67-3.84 53.325 9.091 62.626 37.391 9.693 29.491 5.158 74.049-12.129 119.192-17.373 45.368-44.057 81.673-71.378 97.115-20.156 11.393-42.448 19.163-66.255 23.095-11.946 1.975-24.135 2.962-36.467 2.962zM174.744 59.95c-4.045 0-8.27.502-12.719 1.572-29.325 7.166-54.952 29.077-72.159 61.697-17.916 33.961-23.817 75.232-14.35 100.362 6.529 17.331-1.339 37.242-9.668 58.322-13.715 34.71-29.26 74.051 14.921 113.214 36.252 32.134 82.72 53.691 130.846 60.699 24.048 3.502 47.874 3.356 70.817-.433 23.762-3.924 46.01-11.68 66.127-23.05 27.245-15.4 53.864-51.63 71.206-96.916 17.256-45.063 21.788-89.523 12.123-118.932-9.236-28.102-30.748-40.94-62.21-37.127-5.396.654-10.577.965-15.55.966-54.328.002-84.374-37.129-111.152-70.216-21.579-26.663-40.597-50.158-68.232-50.158zm72.206 400.938c-11.757 0-23.648-.886-35.599-2.66-48.943-7.263-96.238-29.328-133.174-62.131-45.101-40.054-29.029-79.62-14.848-114.529 8.629-21.242 16.779-41.305 9.828-58.724-4.838-12.125-6.163-28.034-3.831-46.008 2.353-18.138 8.231-36.726 16.998-53.755 17.71-34.4 44.426-57.5 75.225-65.045 16.269-3.924 30.635-.735 45.217 10.036 13.014 9.613 24.684 24.152 37.039 39.544 29.418 36.648 62.765 78.184 127.672 70.317 32.081-3.889 54.025 9.213 63.449 37.888 9.811 29.85 5.235 74.932-12.241 120.593-17.564 45.892-44.557 82.619-72.206 98.248-20.405 11.533-42.995 19.377-67.142 23.312-11.92 1.943-24.08 2.914-36.387 2.914zM73.517 222.7c7.009 17.564-1.17 37.698-9.829 59.015-14.132 34.79-30.15 74.221 14.746 114.092 36.88 32.753 84.104 54.785 132.973 62.037 24.42 3.624 48.599 3.539 71.866-.254 24.102-3.929 46.649-11.757 67.014-23.267 27.573-15.585 54.502-52.238 72.035-98.048 17.444-45.58 22.018-90.565 12.235-120.333-9.36-28.478-31.157-41.486-63.034-37.624-5.438.659-10.663.973-15.675.974-55.013.004-85.328-37.773-112.348-71.433-24.968-31.104-46.529-57.969-81.861-49.445-30.688 7.517-57.313 30.546-74.971 64.845-8.747 16.989-14.611 35.533-16.958 53.627-2.323 17.909-1.007 33.751 3.807 45.814zM247.87 463.052c-12.124 0-24.393-.932-36.728-2.796-49.685-7.508-97.736-30.049-135.301-63.469-45.824-40.769-29.273-80.436-14.67-115.434 8.956-21.465 17.416-41.739 9.989-59.382-10.28-24.42-5.465-64.144 11.98-98.848 8.338-16.587 19.283-31.355 31.652-42.707 13.918-12.774 29.52-21.349 46.372-25.487 16.488-3.991 31.031-.746 45.768 10.212 13.153 9.78 24.93 24.569 37.399 40.227 29.67 37.258 63.293 79.487 128.992 71.525 32.497-3.939 54.724 9.334 64.273 38.386 9.929 30.21 5.311 75.815-12.354 121.994-17.755 46.415-45.058 83.566-73.036 99.38-20.653 11.674-43.541 19.59-68.029 23.53-11.892 1.912-24.025 2.869-36.307 2.869zM71.518 221.819c7.49 17.793-1 38.141-9.988 59.683-14.553 34.878-31.047 74.409 14.569 114.994 37.51 33.371 85.489 55.878 135.101 63.375 24.792 3.747 49.324 3.722 72.916-.073 24.442-3.932 47.287-11.834 67.9-23.484 27.902-15.771 55.141-52.847 72.863-99.181 17.633-46.097 22.249-91.605 12.348-121.734-9.483-28.853-31.56-42.035-63.857-38.121-5.483.665-10.746.981-15.799.981-55.693.001-86.284-38.418-113.544-72.65-25.197-31.643-46.958-58.97-82.771-50.304-16.787 4.122-32.331 12.666-46.201 25.395-12.335 11.321-23.251 26.05-31.568 42.595-17.397 34.611-22.207 74.204-11.969 98.524zm177.269 243.397c-12.488 0-25.135-.978-37.854-2.933-50.428-7.753-99.234-30.769-137.427-64.807-46.553-41.488-29.519-81.265-14.49-116.359 9.284-21.679 18.053-42.155 10.148-60.02-5.235-11.831-6.966-27.391-5.007-44.999 1.952-17.54 7.422-35.849 15.817-52.945 8.485-17.278 19.762-32.711 32.613-44.63 14.455-13.406 30.669-22.39 48.191-26.702 16.708-4.057 31.426-.755 46.32 10.389 13.293 9.947 25.176 24.987 37.758 40.91 29.922 37.869 63.83 80.79 130.312 72.733 32.91-3.991 55.424 9.455 65.096 38.883 10.047 30.57 5.387 76.699-12.465 123.395-17.945 46.938-45.558 84.513-73.864 100.512-20.902 11.814-44.089 19.804-68.917 23.747-11.866 1.884-23.973 2.826-36.231 2.826zm-74.695-414.67c-4.2 0-8.592.528-13.222 1.652-17.457 4.296-33.613 13.248-48.019 26.609-12.817 11.887-24.065 27.28-32.529 44.516-8.376 17.057-13.832 35.32-15.779 52.817-1.952 17.539-.232 33.03 4.975 44.799 7.973 18.019-.828 38.571-10.146 60.33-14.977 34.974-31.953 74.614 14.391 115.916 38.138 33.99 86.873 56.972 137.228 64.714 25.164 3.868 50.049 3.905 73.966.106 24.782-3.936 47.925-11.91 68.786-23.701 28.23-15.956 55.778-53.456 73.692-100.313 17.822-46.615 22.48-92.647 12.459-123.135-9.606-29.229-31.973-42.583-64.68-38.618-5.524.67-10.833.989-15.925.989-56.38.005-87.238-39.061-114.739-73.867-22.183-28.075-41.732-52.814-70.458-52.814zM249.7 467.382c-12.852.001-25.874-1.024-38.976-3.071-51.171-7.998-100.732-31.489-139.554-66.146-47.287-42.213-29.767-82.107-14.309-117.304 9.611-21.885 18.689-42.555 10.306-60.639-11.019-23.768-7.227-61.866 9.663-97.06 18.625-38.811 49.083-65.946 83.563-74.45 16.929-4.122 31.823-.765 46.872 10.566 13.431 10.113 25.422 25.404 38.117 41.593 30.174 38.48 64.374 82.092 131.633 73.941 33.328-4.042 56.124 9.578 65.919 39.38 10.166 30.93 5.464 77.583-12.578 124.796-18.136 47.462-46.058 85.46-74.693 101.644-21.15 11.955-44.635 20.017-69.804 23.964-11.842 1.858-23.923 2.786-36.159 2.786zM173.844 47.409c-4.333 0-8.77.564-13.359 1.681-34.366 8.475-64.73 35.535-83.305 74.24-16.841 35.093-20.633 73.061-9.66 96.728 8.458 18.243-.655 38.992-10.303 60.958-15.405 35.077-32.865 74.833 14.212 116.858 38.767 34.607 88.258 58.065 139.355 66.051 25.536 3.991 50.775 4.087 75.015.286 25.122-3.939 48.563-11.987 69.673-23.918 28.558-16.141 56.417-54.065 74.521-101.445 18.01-47.133 22.71-93.688 12.572-124.536-9.73-29.604-32.374-43.128-65.504-39.116-5.568.675-10.919.997-16.051.997-57.062.004-88.192-39.705-115.934-75.083-12.679-16.168-24.654-31.44-38.045-41.522-10.867-8.181-21.652-12.179-33.187-12.179zm76.921 422.101c-13.246 0-26.678-1.076-40.2-3.229-51.851-8.255-102.186-32.201-141.731-67.427-47.942-43.028-29.959-83.016-14.094-118.297 9.923-22.065 19.295-42.907 10.43-61.21-11.294-23.316-7.942-61.077 8.539-96.201 8.736-18.617 20.659-35.36 34.482-48.418 15.524-14.665 32.958-24.464 51.816-29.124 17.148-4.189 32.218-.776 47.423 10.742 13.571 10.28 25.668 25.822 38.476 42.276 30.427 39.09 64.912 83.395 132.954 75.148 33.745-4.09 56.824 9.699 66.742 39.877 10.284 31.289 5.54 78.466-12.69 126.198-18.326 47.985-46.559 86.406-75.522 102.776-21.394 12.093-45.172 20.221-70.672 24.16-11.771 1.821-23.783 2.729-35.953 2.729zM173.626 44.275c-4.385 0-8.878.573-13.526 1.708-18.792 4.644-36.167 14.411-51.642 29.029-13.788 13.025-25.682 29.727-34.397 48.3-16.433 35.022-19.786 72.651-8.541 95.866 8.945 18.467-.464 39.389-10.425 61.539-15.811 35.16-33.732 75.01 13.998 117.847 39.49 35.177 89.754 59.09 141.533 67.333 25.906 4.124 51.487 4.293 76.033.502 25.453-3.932 49.187-12.045 70.54-24.114 28.886-16.327 57.055-54.674 75.35-102.577 18.199-47.651 22.94-94.73 12.684-125.938-9.853-29.98-32.791-43.675-66.327-39.613-5.612.68-11.004 1.005-16.177 1.005-57.745.004-89.147-40.349-117.13-76.3-12.792-16.434-24.874-31.956-38.404-42.205-10.98-8.319-21.889-12.382-33.569-12.382zm78.038 427.407c-13.605 0-27.408-1.123-41.31-3.37-52.598-8.499-103.686-32.922-143.854-68.769-48.691-43.753-30.213-83.873-13.911-119.271 10.251-22.257 19.933-43.281 10.585-61.799-5.781-11.453-8.09-26.536-6.677-43.616 1.387-16.758 6.268-34.655 14.118-51.757 8.842-19.264 21.079-36.649 35.39-50.276 16.056-15.289 34.095-25.493 53.617-30.327 17.371-4.256 32.615-.786 47.975 10.919 13.71 10.447 25.914 26.24 38.835 42.96 30.679 39.7 65.45 84.698 134.275 76.356 34.158-4.141 57.524 9.82 67.566 40.374 10.402 31.649 5.616 79.35-12.802 127.598-18.517 48.509-47.059 87.353-76.351 103.909-21.643 12.233-45.72 20.435-71.56 24.379-11.753 1.794-23.746 2.69-35.896 2.69zM173.408 41.14c-4.438 0-8.986.581-13.692 1.734-19.455 4.817-37.435 14.988-53.442 30.231-14.276 13.594-26.484 30.938-35.305 50.157-7.831 17.061-12.701 34.913-14.084 51.627-1.407 17.009.887 32.019 6.637 43.409 9.432 18.686-.288 39.792-10.579 62.137-16.246 35.275-34.66 75.257 13.817 118.818 40.113 35.798 91.131 60.188 143.657 68.675 26.277 4.246 52.212 4.474 77.085.679 25.794-3.936 49.826-12.122 71.428-24.332 29.215-16.513 57.693-55.283 76.179-103.709 18.387-48.168 23.171-95.772 12.796-127.339-9.977-30.355-33.192-44.228-67.15-40.11-5.655.685-11.091 1.012-16.304 1.013-58.429.005-90.101-40.993-118.325-77.517-12.905-16.699-25.093-32.472-38.763-42.888-11.097-8.454-22.13-12.585-33.955-12.585zm79.152 432.715c-13.963 0-28.137-1.17-42.419-3.511-53.345-8.743-105.187-33.642-145.978-70.111-49.443-44.483-30.468-84.74-13.726-120.258 10.579-22.444 20.571-43.643 10.74-62.375-12.002-22.87-9.561-59.111 6.37-94.581 8.935-19.893 21.481-37.912 36.281-52.108 16.585-15.908 35.227-26.513 55.408-31.52 17.592-4.322 33.01-.796 48.526 11.096 13.849 10.613 26.159 26.657 39.193 43.643 30.932 40.311 65.986 86.002 135.596 77.564 34.573-4.193 58.224 9.942 68.39 40.872 10.52 32.009 5.692 80.233-12.915 128.999-18.708 49.032-47.56 88.3-77.18 105.041-21.892 12.374-46.267 20.65-72.448 24.597-11.732 1.767-23.706 2.652-35.838 2.652zM61.522 217.418c9.921 18.904-.111 40.188-10.733 62.722-16.684 35.395-35.594 75.514 13.634 119.803 40.735 36.419 92.508 61.285 145.781 70.017 26.65 4.368 52.939 4.656 78.136.857 26.134-3.94 50.465-12.2 72.315-24.55 29.543-16.699 58.332-55.892 77.008-104.842 18.576-48.685 23.402-96.813 12.908-128.739-10.1-30.732-33.605-44.771-67.974-40.608-5.702.691-11.176 1.021-16.432 1.021-59.106.001-91.055-41.639-119.519-78.734-13.018-16.965-25.313-32.989-39.121-43.571-15.415-11.814-30.73-15.318-48.197-11.027-20.114 4.99-38.697 15.562-55.232 31.423-14.764 14.162-27.28 32.138-36.196 51.987-15.881 35.364-18.326 71.475-6.378 94.241zm191.932 258.61c-14.319 0-28.865-1.219-43.524-3.654-54.091-8.987-106.688-34.362-148.101-71.453-50.2-45.216-30.723-85.615-13.54-121.258 10.907-22.624 21.209-43.993 10.893-62.939-12.261-22.519-10.22-58.471 5.327-93.827 19.526-44.405 54.795-76.785 94.344-86.615 17.81-4.389 33.405-.806 49.077 11.272 13.988 10.78 26.405 27.075 39.552 44.326 31.185 40.921 66.533 87.303 136.917 78.771 34.991-4.24 58.925 10.064 69.213 41.369 10.638 32.369 5.768 81.116-13.027 130.401-18.898 49.555-48.061 89.246-78.009 106.173-22.141 12.515-46.815 20.864-73.337 24.816-11.716 1.746-23.67 2.618-35.785 2.618zM172.972 34.871c-4.544 0-9.202.599-14.027 1.788-39.432 9.801-74.603 42.098-94.081 86.394-15.5 35.248-17.547 71.07-5.341 93.485 10.411 19.121.067 40.578-10.884 63.294-17.124 35.52-36.533 75.78 13.45 120.8 41.359 37.041 93.886 62.383 147.905 71.358 27.021 4.489 53.663 4.838 79.188 1.034 26.475-3.945 51.103-12.278 73.203-24.769 29.871-16.884 58.969-56.5 77.837-105.973 18.764-49.203 23.632-97.854 13.021-130.14-10.224-31.107-34.012-45.32-68.797-41.105-5.744.696-11.264 1.028-16.56 1.029-59.792.004-92.008-42.282-120.713-79.95-13.131-17.23-25.533-33.505-39.48-44.254-11.324-8.727-22.607-12.991-34.721-12.991zm81.374 443.332c-14.674 0-29.591-1.266-44.627-3.797-54.838-9.231-108.189-35.083-150.225-72.795-50.959-45.951-30.98-86.496-13.352-122.268 11.235-22.799 21.847-44.335 11.044-63.493-6.284-11.145-9.132-25.818-8.236-42.43.869-16.115 5.208-33.642 12.548-50.685 9.089-21.103 22.233-40.358 38.013-55.684 17.635-17.128 37.471-28.526 58.957-33.876 18.032-4.455 33.801-.816 49.628 11.449 14.126 10.947 26.651 27.493 39.91 45.01 31.437 41.532 67.073 88.602 138.239 79.979 35.407-4.292 59.625 10.186 70.037 41.867 10.756 32.728 5.844 82-13.14 131.801-19.089 50.079-48.562 90.193-78.838 107.305-22.39 12.655-47.363 21.078-74.225 25.034-11.7 1.722-23.634 2.583-35.733 2.583zM172.754 31.737c-4.597 0-9.31.608-14.194 1.815-21.418 5.333-41.195 16.698-58.78 33.778-15.743 15.29-28.858 34.502-37.926 55.559-15.129 35.128-16.788 70.675-4.33 92.77 10.903 19.337.247 40.962-11.035 63.856-17.566 35.649-37.477 76.054 13.264 121.808 41.981 37.662 95.263 63.481 150.029 72.7 27.394 4.611 54.39 5.02 80.24 1.212 26.815-3.949 51.742-12.356 74.09-24.987 30.199-17.069 59.608-57.109 78.666-107.106 18.953-49.721 23.863-98.895 13.133-131.542-10.347-31.483-34.424-45.868-69.621-41.602-5.791.702-11.35 1.037-16.688 1.037-60.471.001-92.962-42.927-121.908-81.167-13.244-17.496-25.753-34.022-39.838-44.937-11.436-8.864-22.843-13.194-35.102-13.194zm82.481 448.642c-15.031 0-30.314-1.314-45.729-3.942-55.585-9.476-109.69-35.804-152.348-74.137-51.722-46.689-31.237-87.384-13.163-123.289 11.563-22.97 22.484-44.666 11.194-64.036-6.445-11.057-9.464-25.609-8.733-42.082.707-15.931 4.877-33.346 12.058-50.363 9.15-21.683 22.586-41.541 38.855-57.427 17.9-17.478 38.894-29.593 60.713-35.036 18.251-4.52 34.196-.826 50.18 11.626 14.265 11.114 26.896 27.91 40.268 45.693 31.69 42.142 67.604 89.91 139.56 81.186 35.82-4.34 60.325 10.308 70.86 42.365 10.875 33.088 5.921 82.884-13.252 133.203-19.28 50.602-49.062 91.14-79.667 108.438-22.639 12.796-47.91 21.292-75.113 25.252-11.681 1.699-23.601 2.549-35.683 2.549zm-199.71-265.6c11.396 19.553.429 41.34-11.183 64.407-18.011 35.781-38.425 76.335 13.076 122.825 42.604 38.284 96.64 64.579 152.153 74.043 27.765 4.732 55.116 5.201 81.291 1.39 27.155-3.953 52.382-12.434 74.978-25.206 30.528-17.255 60.246-57.718 79.495-108.238 19.141-50.239 24.093-99.936 13.246-132.943-10.471-31.859-34.832-46.417-70.445-42.1-5.833.707-11.44 1.044-16.817 1.045-61.158.005-93.914-43.569-123.101-82.383-13.356-17.762-25.972-34.538-40.196-45.62-15.882-12.373-31.722-16.045-49.847-11.555-21.752 5.425-42.685 17.507-60.535 34.936-16.232 15.85-29.638 35.664-38.768 57.3-7.163 16.975-11.322 34.344-12.027 50.229-.729 16.399 2.273 30.877 8.68 41.87zm200.598 267.777c-15.384 0-31.037-1.363-46.828-4.088-56.332-9.72-111.19-36.525-154.471-75.479C2.335 355.56 23.328 314.711 41.85 278.671c6.097-11.864 11.856-23.069 14.645-33.825 3.123-12.039 2.073-21.809-3.303-30.747-13.214-21.968-12.33-56.293 2.365-91.819 9.202-22.247 22.924-42.697 39.683-59.139 18.409-18.062 40.006-30.573 62.457-36.183 18.472-4.586 34.592-.836 50.73 11.803 14.404 11.28 27.141 28.328 40.627 46.377 31.943 42.753 68.151 91.214 140.882 82.393 36.241-4.391 61.025 10.43 71.684 42.862 10.993 33.448 5.997 83.766-13.364 134.603-19.471 51.125-49.563 92.087-80.496 109.57-22.888 12.936-48.458 21.506-76.002 25.471-11.666 1.679-23.569 2.519-35.635 2.519zM53.526 213.899c11.89 19.767.612 41.714-11.33 64.949C23.738 314.764 2.818 355.472 55.083 402.7c43.227 38.905 98.017 65.677 154.277 75.384 28.137 4.855 55.841 5.383 82.343 1.568 27.496-3.958 53.02-12.512 75.866-25.424 30.856-17.441 60.884-58.327 80.324-109.37 19.33-50.756 24.324-100.978 13.358-134.344-10.594-32.234-35.235-46.965-71.268-42.597-5.878.712-11.527 1.052-16.945 1.053-61.839.004-94.867-44.213-124.295-83.599-13.469-18.027-26.192-35.055-40.555-46.304-16.037-12.559-32.051-16.286-50.397-11.731-22.383 5.593-43.918 18.07-62.278 36.083-16.722 16.406-30.414 36.811-39.596 59.01-14.648 35.413-15.542 69.607-2.391 91.47zm203.482 270.834c-15.736 0-31.758-1.412-47.925-4.235-57.079-9.964-112.692-37.246-156.595-76.82-53.256-48.171-31.752-89.177-12.78-125.356 6.268-11.952 12.188-23.242 15.033-34.08 3.183-12.127 2.057-21.983-3.544-31.018-13.465-21.722-12.93-55.829 1.432-91.237 9.245-22.795 23.249-43.826 40.497-60.82 18.916-18.637 41.111-31.541 64.186-37.317 18.692-4.654 34.987-.846 51.282 11.979 14.543 11.447 27.387 28.746 40.984 47.06 32.195 43.363 68.688 92.511 142.204 83.601 36.655-4.442 61.725 10.551 72.508 43.36 11.111 33.807 6.073 84.65-13.476 136.004-19.662 51.649-50.064 93.033-81.325 110.702-23.136 13.077-49.006 21.72-76.89 25.689-11.654 1.659-23.539 2.488-35.591 2.488zM172.1 22.333c-4.755 0-9.635.635-14.694 1.894-23.008 5.759-45.142 18.628-64.008 37.216-17.211 16.957-31.184 37.943-40.41 60.689-14.315 35.293-14.861 69.269-1.461 90.886 12.386 19.982.796 42.084-11.475 65.483-18.907 36.054-40.336 76.918 12.696 124.887 43.85 39.526 99.394 66.775 156.401 76.726 28.51 4.977 56.567 5.564 83.395 1.746 27.835-3.962 53.659-12.59 76.753-25.643 31.185-17.626 61.522-58.935 81.153-110.502 19.519-51.273 24.555-102.019 13.47-135.744-10.717-32.61-35.642-47.514-72.092-43.095-5.923.718-11.614 1.06-17.075 1.061-62.52.004-95.82-44.858-125.488-84.816-13.582-18.293-26.411-35.572-40.913-46.987-11.779-9.271-23.56-13.801-36.252-13.801zm85.791 464.579c-16.089 0-32.477-1.462-49.021-4.383-57.825-10.208-114.192-37.966-158.718-78.162-54.027-48.916-32.01-90.082-12.586-126.402 6.439-12.04 12.521-23.411 15.419-34.33 3.243-12.214 2.04-22.155-3.786-31.287-13.714-21.498-13.518-55.404.524-90.699 9.281-23.328 23.563-44.93 41.299-62.472 19.419-19.205 42.208-32.496 65.904-38.437 18.913-4.719 35.383-.856 51.832 12.156C223.439 44.51 236.39 62.06 250.1 80.64c32.449 43.973 69.224 93.814 143.526 84.808 37.069-4.494 62.426 10.673 73.332 43.857 11.229 34.167 6.149 85.533-13.589 137.405-19.853 52.172-50.565 93.98-82.154 111.834-23.385 13.218-49.554 21.934-77.778 25.908-11.637 1.641-23.508 2.459-35.546 2.46zM171.882 19.199c-4.806 0-9.744.644-14.861 1.921-23.628 5.923-46.355 19.18-65.725 38.336-17.699 17.504-31.949 39.06-41.211 62.339-13.996 35.179-14.205 68.952-.558 90.346 5.888 9.23 7.106 19.27 3.834 31.596-2.91 10.962-9.002 22.353-15.452 34.413-19.357 36.194-41.298 77.218 12.504 125.93 44.472 40.147 100.771 67.872 158.525 78.068 28.881 5.098 57.293 5.746 84.446 1.923 28.176-3.966 54.298-12.667 77.641-25.861 31.513-17.811 62.16-59.544 81.982-111.634 19.708-51.791 24.786-103.06 13.583-137.145-10.841-32.986-36.054-48.061-72.916-43.592-5.968.723-11.703 1.068-17.204 1.069-63.203.004-96.773-45.501-126.682-86.032-13.695-18.559-26.63-36.089-41.271-47.67-11.894-9.412-23.797-14.007-36.635-14.007zm86.891 469.892c-16.44 0-33.195-1.511-50.114-4.53-58.572-10.452-115.694-38.687-160.842-79.505-24.443-22.152-35.612-44.648-34.144-68.778 1.285-21.129 11.691-40.217 21.754-58.676 6.61-12.125 12.854-23.577 15.806-34.575 3.302-12.299 2.022-22.325-4.029-31.554-7.161-10.922-10.734-24.69-10.618-40.921.109-15.328 3.657-32.369 10.26-49.282 9.311-23.847 23.865-46.01 42.089-64.094 19.919-19.765 43.297-33.439 67.607-39.542 19.134-4.786 35.778-.867 52.383 12.333 14.82 11.781 27.877 29.582 41.7 48.428 32.702 44.584 69.769 95.118 144.848 86.015 37.483-4.545 63.126 10.795 74.155 44.355 11.348 34.526 6.225 86.417-13.701 138.806-20.044 52.696-51.065 94.927-82.983 112.967-23.634 13.358-50.101 22.149-78.666 26.126-11.624 1.619-23.482 2.427-35.505 2.427zM47.528 211.261c6.116 9.328 7.413 19.455 4.08 31.868-2.965 11.042-9.219 22.514-15.84 34.66-19.81 36.338-42.263 77.523 12.31 126.98 45.094 40.769 102.148 68.97 160.649 79.41 29.253 5.22 58.018 5.927 85.498 2.1 28.516-3.971 54.937-12.745 78.528-26.079 31.841-17.997 62.798-60.153 82.811-112.767 19.896-52.309 25.016-104.102 13.696-138.546-10.965-33.363-36.466-48.608-73.74-44.09-6.012.729-11.792 1.077-17.335 1.077-63.886.005-97.725-46.144-127.874-87.248-13.808-18.824-26.849-36.605-41.629-48.353-16.503-13.118-33.041-17.014-52.047-12.26-24.242 6.087-47.559 19.725-67.428 39.441-18.186 18.046-32.71 40.162-42.001 63.959-6.586 16.869-10.125 33.862-10.234 49.143-.113 16.152 3.438 29.847 10.556 40.705zm212.124 280.01c-16.791 0-33.91-1.561-51.205-4.679-59.319-10.697-117.195-39.408-162.965-80.846-24.788-22.484-36.072-45.232-34.5-69.546 1.377-21.286 12.017-40.442 22.307-58.967 6.781-12.209 13.186-23.74 16.193-34.815 3.361-12.382 2.003-22.493-4.274-31.819-7.313-10.864-11.036-24.554-11.067-40.687-.029-15.207 3.377-32.173 9.851-49.064 9.2-24.004 24.424-47.332 42.868-65.687 20.415-20.317 44.378-34.368 69.298-40.634 19.353-4.852 36.173-.877 52.934 12.51 14.959 11.948 28.122 30 42.058 49.112 32.954 45.194 70.302 96.417 146.171 87.222 37.9-4.593 63.826 10.916 74.98 44.852 11.466 34.886 6.301 87.3-13.814 140.206-20.234 53.219-51.566 95.873-83.812 114.099-23.883 13.499-50.649 22.363-79.555 26.345-11.613 1.599-23.458 2.398-35.468 2.398zM45.529 210.381c6.345 9.427 7.72 19.639 4.327 32.138-3.019 11.121-9.435 22.673-16.228 34.902-20.264 36.483-43.232 77.833 12.114 128.036 45.717 41.389 103.525 70.067 162.774 80.751 29.626 5.342 58.746 6.11 86.549 2.278 28.857-3.975 55.576-12.823 79.416-26.298 32.169-18.183 63.437-60.762 83.64-113.899 20.085-52.826 25.247-105.142 13.808-139.947-11.088-33.738-36.873-49.159-74.563-44.588-76.093 9.221-113.514-42.099-146.532-87.379-13.92-19.09-27.068-37.122-41.987-49.037-16.657-13.305-33.37-17.257-52.596-12.437-24.852 6.249-48.753 20.265-69.118 40.533-18.405 18.317-33.598 41.596-42.779 65.55-6.457 16.847-9.854 33.764-9.825 48.924.03 16.058 3.732 29.674 11 40.473zm215.002 283.071c-17.141 0-34.626-1.611-52.296-4.83-60.066-10.941-118.696-40.129-165.089-82.188-25.132-22.816-36.533-45.817-34.855-70.316 1.469-21.444 12.344-40.67 22.861-59.262 6.952-12.291 13.519-23.9 16.579-35.052 3.42-12.465 1.983-22.659-4.521-32.082-7.463-10.812-11.335-24.429-11.508-40.473-.164-15.097 3.106-31.995 9.456-48.866 9.217-24.489 24.714-48.373 43.636-67.252 20.909-20.861 45.452-35.285 70.976-41.713 19.574-4.918 36.569-.886 53.485 12.687 15.097 12.114 28.367 30.417 42.416 49.795 33.208 45.805 70.843 97.723 147.494 88.429 38.313-4.643 64.526 11.038 75.804 45.35 11.584 35.246 6.377 88.183-13.927 141.607-20.425 53.742-52.067 96.819-84.64 115.231-24.132 13.64-51.197 22.577-80.443 26.563-11.6 1.582-23.431 2.372-35.428 2.372zM43.53 209.502c6.574 9.524 8.028 19.822 4.576 32.406-3.073 11.199-9.651 22.828-16.616 35.141-20.72 36.63-44.205 78.147 11.917 129.098 46.34 42.011 104.901 71.165 164.898 82.093 29.997 5.464 59.469 6.29 87.601 2.456 29.197-3.979 56.215-12.901 80.304-26.516 32.497-18.368 64.074-61.371 84.469-115.031 20.273-53.343 25.477-106.184 13.92-141.348-11.212-34.114-37.279-49.703-75.388-45.086-6.104.74-11.967 1.093-17.595 1.094-65.246.003-99.631-47.433-130.259-89.68-14.033-19.356-27.288-37.639-42.344-49.72-16.813-13.49-33.7-17.499-53.146-12.613-25.456 6.41-49.937 20.799-70.796 41.611-18.886 18.841-34.351 42.675-43.549 67.114-6.333 16.826-9.594 33.675-9.431 48.725.173 15.965 4.022 29.51 11.439 40.256zm217.877 286.132c-17.49.001-35.34-1.661-53.384-4.98-60.813-11.185-120.197-40.85-167.213-83.53-25.477-23.15-36.994-46.403-35.21-71.089 1.562-21.604 12.672-40.899 23.417-59.559 7.123-12.371 13.852-24.057 16.965-35.285 3.478-12.546 1.963-22.823-4.768-32.343-14.923-21.105-15.968-53.532-2.867-88.967 9.229-24.962 24.996-49.393 44.396-68.791 21.4-21.398 46.519-36.191 72.642-42.779 19.795-4.984 36.964-.896 54.035 12.864 15.236 12.281 28.612 30.835 42.774 50.479 33.46 46.415 71.384 99.025 148.816 89.636 38.726-4.695 65.227 11.159 76.627 45.848 11.702 35.606 6.454 89.066-14.039 143.008-20.617 54.266-52.568 97.767-85.47 116.363-24.381 13.781-51.745 22.791-81.331 26.782-11.586 1.562-23.405 2.343-35.39 2.343zM171.01 6.66c-5.018 0-10.176.68-15.529 2.028-26.055 6.571-51.112 21.328-72.463 42.676-19.361 19.36-35.096 43.74-44.306 68.651-13.056 35.313-12.029 67.61 2.819 88.608 6.804 9.623 8.337 20.004 4.825 32.672-3.126 11.276-9.867 22.982-17.003 35.375-10.723 18.622-21.811 37.878-23.366 59.394-1.775 24.559 9.701 47.709 35.084 70.773 46.962 42.632 106.278 72.263 167.022 83.435 30.369 5.585 60.196 6.472 88.653 2.634 29.537-3.984 56.854-12.978 81.191-26.734 32.826-18.554 64.713-61.98 85.298-116.163 20.462-53.861 25.709-107.225 14.033-142.748-11.336-34.49-37.683-50.253-76.212-45.583-6.147.745-12.058 1.101-17.726 1.102-65.931.006-100.582-48.076-131.452-90.896-14.146-19.622-27.507-38.155-42.702-50.404-12.348-9.957-24.75-14.82-38.166-14.82zm91.272 491.157c-17.837.001-36.053-1.712-54.471-5.132-61.56-11.429-121.698-41.571-169.336-84.872-25.824-23.484-37.458-46.991-35.566-71.865 1.655-21.764 13.002-41.131 23.975-59.859 7.295-12.451 14.185-24.211 17.351-35.514 3.537-12.626 1.942-22.986-5.017-32.603-15.174-20.967-16.508-53.273-3.66-88.634 9.237-25.424 25.271-50.392 45.147-70.304 21.888-21.927 47.579-37.084 74.296-43.831 20.015-5.05 37.359-.907 54.585 13.04 15.375 12.448 28.857 31.254 43.131 51.163 33.714 47.025 71.927 100.321 150.139 90.844 39.142-4.744 65.927 11.281 77.452 46.345 11.82 35.965 6.53 89.95-14.152 144.409-20.807 54.789-53.069 98.713-86.299 117.495-24.63 13.921-52.292 23.006-82.219 27-11.577 1.546-23.381 2.318-35.356 2.318zM170.792 3.526c-5.071 0-10.284.689-15.696 2.054-26.649 6.73-52.278 21.851-74.116 43.728-19.837 19.873-35.839 44.791-45.057 70.162-12.803 35.238-11.487 67.413 3.61 88.274 7.035 9.721 8.648 20.186 5.077 32.936-3.18 11.351-10.082 23.132-17.39 35.605-10.951 18.691-22.274 38.018-23.922 59.693-1.882 24.746 9.711 48.149 35.44 71.547 47.585 43.253 107.655 73.361 169.145 84.777 30.741 5.708 60.923 6.654 89.704 2.812 29.878-3.988 57.493-13.056 82.079-26.953 33.154-18.739 65.351-62.588 86.127-117.295 20.651-54.379 25.939-108.267 14.146-144.149-11.459-34.866-38.097-50.798-77.036-46.081-6.195.751-12.146 1.109-17.858 1.11-66.609.003-101.535-48.721-132.644-92.113-14.258-19.888-27.726-38.672-43.06-51.087-12.463-10.091-24.988-15.02-38.549-15.02zM263.155 500c-18.185 0-36.764-1.763-55.556-5.284-62.308-11.674-123.2-42.292-171.46-86.214C9.968 384.683-1.782 360.922.217 335.859c1.749-21.925 13.332-41.363 24.535-60.162 15.135-25.398 28.206-47.334 12.469-68.601-15.424-20.843-17.04-53.041-4.435-88.338 9.241-25.875 25.538-51.371 45.891-71.793C101.049 24.516 127.308 9 154.615 2.095c20.233-5.117 37.754-.917 55.136 13.217 15.513 12.615 29.102 31.671 43.488 51.847 33.967 47.635 72.469 101.625 151.462 92.05 39.559-4.795 66.628 11.403 78.276 46.843 11.938 36.325 6.606 90.833-14.265 145.81-20.998 55.313-53.569 99.659-87.128 118.627-24.879 14.062-52.84 23.22-83.107 27.219-11.565 1.529-23.36 2.292-35.322 2.292zM37.533 206.865c7.266 9.819 8.959 20.368 5.329 33.198-3.233 11.426-10.297 23.282-17.777 35.833C13.906 294.656 2.346 314.055.604 335.89c-1.989 24.934 9.72 48.592 35.796 72.324 48.207 43.874 109.032 74.459 171.269 86.119 31.113 5.83 61.647 6.834 90.756 2.989 30.217-3.992 58.132-13.134 82.967-27.172 33.482-18.925 65.989-63.197 86.956-118.427 20.839-54.896 26.17-109.307 14.259-145.55-11.582-35.242-38.506-51.346-77.86-46.579-79.222 9.605-117.795-44.487-151.825-92.21-14.37-20.153-27.944-39.189-43.417-51.771-17.278-14.05-34.69-18.226-54.796-13.142C127.472 9.36 101.275 24.84 78.952 47.24 58.64 67.622 42.375 93.067 33.153 118.889c-12.562 35.173-10.965 67.239 4.38 87.976z" style="fill:url(#a)"/></svg>